{
  "accessors": [
    {
      "bufferView": 3,
      "componentType": 5126,
      "count": 1615,
      "max": [
        0.8733516931533813,
        0.9694604277610779,
        -0.7638553977012634
      ],
      "min": [
        0.5271543860435486,
        0.8556325435638428,
        -1.1259849071502686
      ],
      "type": "VEC3"
    },
    {
      "bufferView": 3,
      "byteOffset": 19380,
      "componentType": 5126,
      "count": 1615,
      "max": [
        0.9802508354187012,
        0.9999874234199524,
        0.9859811663627625
      ],
      "min": [
        -0.9992780685424805,
        -0.9999949336051941,
        -0.9996573328971863
      ],
      "type": "VEC3"
    },
    {
      "bufferView": 4,
      "componentType": 5126,
      "count": 1615,
      "max": [
        0.999845027923584,
        0.7431650161743164,
        0.9996148943901062,
        1.0
      ],
      "min": [
        -0.9999592304229736,
        -0.7431649565696716,
        -0.9996975660324097,
        -1.0
      ],
      "type": "VEC4"
    },
    {
      "bufferView": 2,
      "componentType": 5126,
      "count": 1615,
      "max": [
        0.9921413064002991,
        0.8434433341026306
      ],
      "min": [
        0.07830643653869629,
        0.5979559421539307
      ],
      "type": "VEC2"
    },
    {
      "bufferView": 1,
      "componentType": 5125,
      "count": 7056,
      "type": "SCALAR"
    },
    {
      "bufferView": 3,
      "byteOffset": 38760,
      "componentType": 5126,
      "count": 18295,
      "max": [
        1.5445529222488403,
        0.8581042885780334,
        1.1534085273742676
      ],
      "min": [
        0.4621276259422302,
        -0.0012756700161844492,
        -1.1552281379699707
      ],
      "type": "VEC3"
    },
    {
      "bufferView": 3,
      "byteOffset": 258300,
      "componentType": 5126,
      "count": 18295,
      "max": [
        1.0,
        1.0,
        1.0
      ],
      "min": [
        -1.0,
        -1.0,
        -1.0
      ],
      "type": "VEC3"
    },
    {
      "bufferView": 4,
      "byteOffset": 25840,
      "componentType": 5126,
      "count": 18295,
      "max": [
        1.0,
        1.0,
        1.0,
        1.0
      ],
      "min": [
        -1.0,
        -1.0,
        -1.0,
        -1.0
      ],
      "type": "VEC4"
    },
    {
      "bufferView": 2,
      "byteOffset": 12920,
      "componentType": 5126,
      "count": 18295,
      "max": [
        0.9980435967445374,
        0.9972094297409058
      ],
      "min": [
        0.0019508838886395097,
        0.0019514424493536353
      ],
      "type": "VEC2"
    },
    {
      "bufferView": 1,
      "byteOffset": 28224,
      "componentType": 5125,
      "count": 58140,
      "type": "SCALAR"
    },
    {
      "bufferView": 3,
      "byteOffset": 477840,
      "componentType": 5126,
      "count": 7798,
      "max": [
        0.18453186750411987,
        1.3750932216644287,
        0.11305619031190872
      ],
      "min": [
        -0.9779792428016663,
        0.0019958005286753178,
        -1.0587712526321411
      ],
      "type": "VEC3"
    },
    {
      "bufferView": 3,
      "byteOffset": 571416,
      "componentType": 5126,
      "count": 7798,
      "max": [
        0.9999869465827942,
        1.0,
        0.9998427629470825
      ],
      "min": [
        -0.999535083770752,
        -1.0,
        -0.9995113611221313
      ],
      "type": "VEC3"
    },
    {
      "bufferView": 4,
      "byteOffset": 318560,
      "componentType": 5126,
      "count": 7798,
      "max": [
        0.9950298070907593,
        0.9999990463256836,
        0.998595118522644,
        1.0
      ],
      "min": [
        -0.9993734359741211,
        -0.9999969601631165,
        -0.9998508095741272,
        -1.0
      ],
      "type": "VEC4"
    },
    {
      "bufferView": 2,
      "byteOffset": 159280,
      "componentType": 5126,
      "count": 7798,
      "max": [
        0.9959594011306763,
        0.9231671094894409
      ],
      "min": [
        0.001954221399500966,
        0.0019562242086976767
      ],
      "type": "VEC2"
    },
    {
      "bufferView": 1,
      "byteOffset": 260784,
      "componentType": 5125,
      "count": 41844,
      "type": "SCALAR"
    },
    {
      "bufferView": 3,
      "byteOffset": 664992,
      "componentType": 5126,
      "count": 4240,
      "max": [
        1.5279312133789063,
        2.536346912384033,
        -1.593722939491272
      ],
      "min": [
        0.33387669920921326,
        -1.0115240911545698e-06,
        -2.6347620487213135
      ],
      "type": "VEC3"
    },
    {
      "bufferView": 3,
      "byteOffset": 715872,
      "componentType": 5126,
      "count": 4240,
      "max": [
        1.0,
        1.0,
        1.0
      ],
      "min": [
        -1.0,
        -1.0,
        -1.0
      ],
      "type": "VEC3"
    },
    {
      "bufferView": 4,
      "byteOffset": 443328,
      "componentType": 5126,
      "count": 4240,
      "max": [
        1.0,
        1.0,
        1.0,
        1.0
      ],
      "min": [
        -1.0,
        -1.0,
        -1.0,
        -1.0
      ],
      "type": "VEC4"
    },
    {
      "bufferView": 2,
      "byteOffset": 221664,
      "componentType": 5126,
      "count": 4240,
      "max": [
        0.9981637001037598,
        0.9980456829071045
      ],
      "min": [
        0.0019515145104378462,
        0.0019535720348358154
      ],
      "type": "VEC2"
    },
    {
      "bufferView": 1,
      "byteOffset": 428160,
      "componentType": 5125,
      "count": 9438,
      "type": "SCALAR"
    },
    {
      "bufferView": 3,
      "byteOffset": 766752,
      "componentType": 5126,
      "count": 3312,
      "max": [
        0.978707492351532,
        0.8980782628059387,
        0.6031939387321472
      ],
      "min": [
        0.5901533961296082,
        0.8581042289733887,
        0.267475962638855
      ],
      "type": "VEC3"
    },
    {
      "bufferView": 3,
      "byteOffset": 806496,
      "componentType": 5126,
      "count": 3312,
      "max": [
        0.9999939203262329,
        1.0,
        0.9999939203262329
      ],
      "min": [
        -0.9999939203262329,
        -1.0,
        -0.9999939203262329
      ],
      "type": "VEC3"
    },
    {
      "bufferView": 4,
      "byteOffset": 511168,
      "componentType": 5126,
      "count": 3312,
      "max": [
        0.997887134552002,
        1.0,
        0.9941439032554626,
        1.0
      ],
      "min": [
        -0.9995653629302979,
        -1.0,
        -0.9900344610214233,
        1.0
      ],
      "type": "VEC4"
    },
    {
      "bufferView": 2,
      "byteOffset": 255584,
      "componentType": 5126,
      "count": 3312,
      "max": [
        0.9897173643112183,
        0.9725309610366821
      ],
      "min": [
        0.09986615180969238,
        0.09795395284891129
      ],
      "type": "VEC2"
    },
    {
      "bufferView": 1,
      "byteOffset": 465912,
      "componentType": 5125,
      "count": 15012,
      "type": "SCALAR"
    },
    {
      "bufferView": 3,
      "byteOffset": 846240,
      "componentType": 5126,
      "count": 6797,
      "max": [
        1.5450454950332642,
        1.3881579637527466,
        -0.19572751224040985
      ],
      "min": [
        0.7436724901199341,
        0.8523519039154053,
        -0.9864903092384338
      ],
      "type": "VEC3"
    },
    {
      "bufferView": 3,
      "byteOffset": 927804,
      "componentType": 5126,
      "count": 6797,
      "max": [
        0.9962084293365479,
        1.0,
        0.9999953508377075
      ],
      "min": [
        -0.9971341490745544,
        -1.0,
        -0.9999953508377075
      ],
      "type": "VEC3"
    },
    {
      "bufferView": 4,
      "byteOffset": 564160,
      "componentType": 5126,
      "count": 6797,
      "max": [
        0.9982850551605225,
        1.0,
        0.99956214427948,
        1.0
      ],
      "min": [
        -0.9998451471328735,
        -1.0,
        -0.9998993277549744,
        -1.0
      ],
      "type": "VEC4"
    },
    {
      "bufferView": 2,
      "byteOffset": 282080,
      "componentType": 5126,
      "count": 6797,
      "max": [
        0.997140645980835,
        0.9529647827148438
      ],
      "min": [
        0.0019515978638082743,
        0.11092880368232727
      ],
      "type": "VEC2"
    },
    {
      "bufferView": 1,
      "byteOffset": 525960,
      "componentType": 5125,
      "count": 20829,
      "type": "SCALAR"
    },
    {
      "bufferView": 3,
      "byteOffset": 1009368,
      "componentType": 5126,
      "count": 17252,
      "max": [
        1.2793866395950317,
        1.017693042755127,
        1.008213996887207
      ],
      "min": [
        0.6210535764694214,
        0.856867253780365,
        0.3954198658466339
      ],
      "type": "VEC3"
    },
    {
      "bufferView": 3,
      "byteOffset": 1216392,
      "componentType": 5126,
      "count": 17252,
      "max": [
        0.999088704586029,
        0.999982476234436,
        0.9998785257339478
      ],
      "min": [
        -0.9998549818992615,
        -0.9997909665107727,
        -0.9999927282333374
      ],
      "type": "VEC3"
    },
    {
      "bufferView": 4,
      "byteOffset": 672912,
      "componentType": 5126,
      "count": 17252,
      "max": [
        0.9995142817497253,
        0.999975323677063,
        0.9990560412406921,
        1.0
      ],
      "min": [
        -0.9989179968833923,
        -0.9997323155403137,
        -0.9999275803565979,
        -1.0
      ],
      "type": "VEC4"
    },
    {
      "bufferView": 2,
      "byteOffset": 336456,
      "componentType": 5126,
      "count": 17252,
      "max": [
        0.998042106628418,
        0.9963951110839844
      ],
      "min": [
        0.009067831560969353,
        0.0019512155558913946
      ],
      "type": "VEC2"
    },
    {
      "bufferView": 1,
      "byteOffset": 609276,
      "componentType": 5125,
      "count": 78504,
      "type": "SCALAR"
    },
    {
      "bufferView": 3,
      "byteOffset": 1423416,
      "componentType": 5126,
      "count": 975,
      "max": [
        0.8309656381607056,
        4.007296562194824,
        -0.16903582215309143
      ],
      "min": [
        0.36903464794158936,
        2.9291024208068848,
        -0.6309669017791748
      ],
      "type": "VEC3"
    },
    {
      "bufferView": 3,
      "byteOffset": 1435116,
      "componentType": 5126,
      "count": 975,
      "max": [
        1.0,
        1.0,
        1.0
      ],
      "min": [
        -1.0,
        -1.0,
        -1.0
      ],
      "type": "VEC3"
    },
    {
      "bufferView": 4,
      "byteOffset": 948944,
      "componentType": 5126,
      "count": 975,
      "max": [
        1.0,
        0.9999854564666748,
        1.0,
        1.0
      ],
      "min": [
        -1.0,
        -1.0,
        -1.0,
        -1.0
      ],
      "type": "VEC4"
    },
    {
      "bufferView": 2,
      "byteOffset": 474472,
      "componentType": 5126,
      "count": 975,
      "max": [
        0.975659966468811,
        0.9124582409858704
      ],
      "min": [
        0.0019523118389770389,
        0.2279507964849472
      ],
      "type": "VEC2"
    },
    {
      "bufferView": 1,
      "byteOffset": 923292,
      "componentType": 5125,
      "count": 3729,
      "type": "SCALAR"
    },
    {
      "bufferView": 3,
      "byteOffset": 1446816,
      "componentType": 5126,
      "count": 4071,
      "max": [
        2.4858317375183105,
        1.4088785648345947,
        1.9026507139205933
      ],
      "min": [
        1.6205335855484009,
        1.4900959577346384e-08,
        0.9214693307876587
      ],
      "type": "VEC3"
    },
    {
      "bufferView": 3,
      "byteOffset": 1495668,
      "componentType": 5126,
      "count": 4071,
      "max": [
        0.9945828914642334,
        1.0,
        0.9687540531158447
      ],
      "min": [
        -0.9898348450660706,
        -1.0,
        -0.99172043800354
      ],
      "type": "VEC3"
    },
    {
      "bufferView": 4,
      "byteOffset": 964544,
      "componentType": 5126,
      "count": 4071,
      "max": [
        0.9999994039535522,
        1.0,
        0.9999436736106873,
        1.0
      ],
      "min": [
        -1.0,
        -1.0,
        -0.9997763633728027,
        -1.0
      ],
      "type": "VEC4"
    },
    {
      "bufferView": 2,
      "byteOffset": 482272,
      "componentType": 5126,
      "count": 4071,
      "max": [
        0.9977671504020691,
        0.9973549842834473
      ],
      "min": [
        0.001951274462044239,
        0.0019466346129775047
      ],
      "type": "VEC2"
    },
    {
      "bufferView": 1,
      "byteOffset": 938208,
      "componentType": 5125,
      "count": 12078,
      "type": "SCALAR"
    },
    {
      "bufferView": 3,
      "byteOffset": 1544520,
      "componentType": 5126,
      "count": 3915,
      "max": [
        2.08542799949646,
        0.6806014180183411,
        1.712545394897461
      ],
      "min": [
        1.934446096420288,
        0.6369584202766418,
        1.403502345085144
      ],
      "type": "VEC3"
    },
    {
      "bufferView": 3,
      "byteOffset": 1591500,
      "componentType": 5126,
      "count": 3915,
      "max": [
        0.9976604580879211,
        0.9999982714653015,
        0.9990159869194031
      ],
      "min": [
        -0.9995372295379639,
        -0.9999416470527649,
        -0.9984569549560547
      ],
      "type": "VEC3"
    },
    {
      "bufferView": 4,
      "byteOffset": 1029680,
      "componentType": 5126,
      "count": 3915,
      "max": [
        0.9996641278266907,
        0.9999581575393677,
        0.9990275502204895,
        1.0
      ],
      "min": [
        -0.99960857629776,
        -0.9999064207077026,
        -0.9984821081161499,
        -1.0
      ],
      "type": "VEC4"
    },
    {
      "bufferView": 2,
      "byteOffset": 514840,
      "componentType": 5126,
      "count": 3915,
      "max": [
        0.9980379343032837,
        0.9961493611335754
      ],
      "min": [
        0.0019524157978594303,
        0.001952795428223908
      ],
      "type": "VEC2"
    },
    {
      "bufferView": 1,
      "byteOffset": 986520,
      "componentType": 5125,
      "count": 13710,
      "type": "SCALAR"
    },
    {
      "bufferView": 3,
      "byteOffset": 1638480,
      "componentType": 5126,
      "count": 4323,
      "max": [
        1.4354548454284668,
        1.414341926574707,
        0.8575926423072815
      ],
      "min": [
        1.1494951248168945,
        0.8585956692695618,
        0.571632981300354
      ],
      "type": "VEC3"
    },
    {
      "bufferView": 3,
      "byteOffset": 1690356,
      "componentType": 5126,
      "count": 4323,
      "max": [
        1.0,
        0.9667167663574219,
        1.0
      ],
      "min": [
        -1.0,
        -0.9999828338623047,
        -1.0
      ],
      "type": "VEC3"
    },
    {
      "bufferView": 4,
      "byteOffset": 1092320,
      "componentType": 5126,
      "count": 4323,
      "max": [
        1.0,
        0.9342502951622009,
        0.9992011189460754,
        1.0
      ],
      "min": [
        -1.0,
        -0.9999502301216125,
        -0.9976660013198853,
        -1.0
      ],
      "type": "VEC4"
    },
    {
      "bufferView": 2,
      "byteOffset": 546160,
      "componentType": 5126,
      "count": 4323,
      "max": [
        0.6418561339378357,
        0.6559651494026184
      ],
      "min": [
        0.10192254185676575,
        0.45474812388420105
      ],
      "type": "VEC2"
    },
    {
      "bufferView": 1,
      "byteOffset": 1041360,
      "componentType": 5125,
      "count": 24288,
      "type": "SCALAR"
    },
    {
      "bufferView": 3,
      "byteOffset": 1742232,
      "componentType": 5126,
      "count": 360,
      "max": [
        0.7930805683135986,
        0.8767382502555847,
        0.7843358516693115
      ],
      "min": [
        0.5634986162185669,
        0.8584654331207275,
        0.5532143712043762
      ],
      "type": "VEC3"
    },
    {
      "bufferView": 3,
      "byteOffset": 1746552,
      "componentType": 5126,
      "count": 360,
      "max": [
        0.999005138874054,
        1.0,
        0.9995265007019043
      ],
      "min": [
        -0.9990910291671753,
        -1.0,
        -0.9991463422775269
      ],
      "type": "VEC3"
    },
    {
      "bufferView": 4,
      "byteOffset": 1161488,
      "componentType": 5126,
      "count": 360,
      "max": [
        0.997994601726532,
        0.7675974369049072,
        0.9996614456176758,
        1.0
      ],
      "min": [
        -0.9940062165260315,
        -0.7297066450119019,
        -0.9967858791351318,
        1.0
      ],
      "type": "VEC4"
    },
    {
      "bufferView": 2,
      "byteOffset": 580744,
      "componentType": 5126,
      "count": 360,
      "max": [
        0.9637892246246338,
        0.9083354473114014
      ],
      "min": [
        0.008868747390806675,
        0.4579657316207886
      ],
      "type": "VEC2"
    },
    {
      "bufferView": 1,
      "byteOffset": 1138512,
      "componentType": 5125,
      "count": 1692,
      "type": "SCALAR"
    },
    {
      "bufferView": 3,
      "byteOffset": 1750872,
      "componentType": 5126,
      "count": 6075,
      "max": [
        2.3493335247039795,
        0.8325631022453308,
        1.6699618101119995
      ],
      "min": [
        1.8843402862548828,
        0.6378723382949829,
        1.10260009765625
      ],
      "type": "VEC3"
    },
    {
      "bufferView": 3,
      "byteOffset": 1823772,
      "componentType": 5126,
      "count": 6075,
      "max": [
        0.9998043179512024,
        0.9999935030937195,
        1.0
      ],
      "min": [
        -0.9998042583465576,
        -0.9999940395355225,
        -0.9998043179512024
      ],
      "type": "VEC3"
    },
    {
      "bufferView": 4,
      "byteOffset": 1167248,
      "componentType": 5126,
      "count": 6075,
      "max": [
        0.9999943375587463,
        0.999874472618103,
        0.9999997019767761,
        1.0
      ],
      "min": [
        -0.9999622106552124,
        -0.9983746409416199,
        -0.9998608231544495,
        1.0
      ],
      "type": "VEC4"
    },
    {
      "bufferView": 2,
      "byteOffset": 583624,
      "componentType": 5126,
      "count": 6075,
      "max": [
        0.9980069994926453,
        0.9966931343078613
      ],
      "min": [
        0.0026879562065005302,
        0.015952816233038902
      ],
      "type": "VEC2"
    },
    {
      "bufferView": 1,
      "byteOffset": 1145280,
      "componentType": 5125,
      "count": 14742,
      "type": "SCALAR"
    },
    {
      "bufferView": 3,
      "byteOffset": 1896672,
      "componentType": 5126,
      "count": 4,
      "max": [
        1.3376201391220093,
        0.8596212267875671,
        0.48420971632003784
      ],
      "min": [
        0.5274295806884766,
        0.8596212267875671,
        -0.5485367178916931
      ],
      "type": "VEC3"
    },
    {
      "bufferView": 3,
      "byteOffset": 1896720,
      "componentType": 5126,
      "count": 4,
      "max": [
        7.817008373933731e-09,
        1.0,
        1.9769418102555392e-08
      ],
      "min": [
        7.817008373933731e-09,
        1.0,
        1.9769418102555392e-08
      ],
      "type": "VEC3"
    },
    {
      "bufferView": 4,
      "byteOffset": 1264448,
      "componentType": 5126,
      "count": 4,
      "max": [
        -0.16061921417713165,
        -1.8257178879821367e-08,
        0.987016499042511,
        1.0
      ],
      "min": [
        -0.16061927378177643,
        -1.8257189537962404e-08,
        0.9870164394378662,
        1.0
      ],
      "type": "VEC4"
    },
    {
      "bufferView": 2,
      "byteOffset": 632224,
      "componentType": 5126,
      "count": 4,
      "max": [
        0.11937940865755081,
        0.2656499147415161
      ],
      "min": [
        0.0019556349143385887,
        0.1819542646408081
      ],
      "type": "VEC2"
    },
    {
      "bufferView": 1,
      "byteOffset": 1204248,
      "componentType": 5125,
      "count": 6,
      "type": "SCALAR"
    },
    {
      "bufferView": 3,
      "byteOffset": 1896768,
      "componentType": 5126,
      "count": 177,
      "max": [
        0.6940078139305115,
        0.9126572608947754,
        0.8429699540138245
      ],
      "min": [
        0.6569085121154785,
        0.8567129373550415,
        0.6603646874427795
      ],
      "type": "VEC3"
    },
    {
      "bufferView": 3,
      "byteOffset": 1898892,
      "componentType": 5126,
      "count": 177,
      "max": [
        0.9973013401031494,
        0.9887579679489136,
        0.9931678175926208
      ],
      "min": [
        -0.9958152770996094,
        -0.9997952580451965,
        -0.9912347197532654
      ],
      "type": "VEC3"
    },
    {
      "bufferView": 4,
      "byteOffset": 1264512,
      "componentType": 5126,
      "count": 177,
      "max": [
        0.9973616600036621,
        0.9697292447090149,
        0.9871848821640015,
        1.0
      ],
      "min": [
        -0.9955809712409973,
        -0.9918304681777954,
        -0.9927735328674316,
        1.0
      ],
      "type": "VEC4"
    },
    {
      "bufferView": 2,
      "byteOffset": 632256,
      "componentType": 5126,
      "count": 177,
      "max": [
        0.7055093050003052,
        0.9725601077079773
      ],
      "min": [
        0.31883683800697327,
        0.31244516372680664
      ],
      "type": "VEC2"
    },
    {
      "bufferView": 1,
      "byteOffset": 1204272,
      "componentType": 5125,
      "count": 846,
      "type": "SCALAR"
    },
    {
      "bufferView": 3,
      "byteOffset": 1901016,
      "componentType": 5126,
      "count": 4,
      "max": [
        1.2840243577957153,
        0.8601245284080505,
        0.3503221571445465
      ],
      "min": [
        1.1449123620986938,
        0.8601245284080505,
        0.19654783606529236
      ],
      "type": "VEC3"
    },
    {
      "bufferView": 3,
      "byteOffset": 1901064,
      "componentType": 5126,
      "count": 4,
      "max": [
        2.8212994607201836e-07,
        1.0,
        -6.084022174945858e-14
      ],
      "min": [
        2.8212994607201836e-07,
        1.0,
        -6.084022174945858e-14
      ],
      "type": "VEC3"
    },
    {
      "bufferView": 4,
      "byteOffset": 1267344,
      "componentType": 5126,
      "count": 4,
      "max": [
        -0.5400097370147705,
        1.523529959968073e-07,
        0.8416588306427002,
        1.0
      ],
      "min": [
        -0.5400097966194153,
        1.5235296757509786e-07,
        0.8416587710380554,
        1.0
      ],
      "type": "VEC4"
    },
    {
      "bufferView": 2,
      "byteOffset": 633672,
      "componentType": 5126,
      "count": 4,
      "max": [
        0.8483676910400391,
        0.24418222904205322
      ],
      "min": [
        0.8320498466491699,
        0.23395216464996338
      ],
      "type": "VEC2"
    },
    {
      "bufferView": 1,
      "byteOffset": 1207656,
      "componentType": 5125,
      "count": 6,
      "type": "SCALAR"
    },
    {
      "bufferView": 3,
      "byteOffset": 1901112,
      "componentType": 5126,
      "count": 4,
      "max": [
        1.1896971464157104,
        0.860318660736084,
        0.4169621765613556
      ],
      "min": [
        1.0785857439041138,
        0.860318660736084,
        0.27062955498695374
      ],
      "type": "VEC3"
    },
    {
      "bufferView": 3,
      "byteOffset": 1901160,
      "componentType": 5126,
      "count": 4,
      "max": [
        2.8212994607201836e-07,
        1.0,
        -6.084022174945858e-14
      ],
      "min": [
        2.8212994607201836e-07,
        1.0,
        -6.084022174945858e-14
      ],
      "type": "VEC3"
    },
    {
      "bufferView": 4,
      "byteOffset": 1267408,
      "componentType": 5126,
      "count": 4,
      "max": [
        -0.24493281543254852,
        6.910294558792884e-08,
        0.9695401191711426,
        1.0
      ],
      "min": [
        -0.24493283033370972,
        6.910294558792884e-08,
        0.9695400595664978,
        1.0
      ],
      "type": "VEC4"
    },
    {
      "bufferView": 2,
      "byteOffset": 633704,
      "componentType": 5126,
      "count": 4,
      "max": [
        0.6753276586532593,
        0.3981829881668091
      ],
      "min": [
        0.659009575843811,
        0.38795244693756104
      ],
      "type": "VEC2"
    },
    {
      "bufferView": 1,
      "byteOffset": 1207680,
      "componentType": 5125,
      "count": 6,
      "type": "SCALAR"
    },
    {
      "bufferView": 3,
      "byteOffset": 1901208,
      "componentType": 5126,
      "count": 4,
      "max": [
        1.061516284942627,
        0.8601245880126953,
        0.46530893445014954
      ],
      "min": [
        0.9349238872528076,
        0.8601245880126953,
        0.3262921869754791
      ],
      "type": "VEC3"
    },
    {
      "bufferView": 3,
      "byteOffset": 1901256,
      "componentType": 5126,
      "count": 4,
      "max": [
        2.8212994607201836e-07,
        1.0,
        -6.084022174945858e-14
      ],
      "min": [
        2.8212994607201836e-07,
        1.0,
        -6.084022174945858e-14
      ],
      "type": "VEC3"
    },
    {
      "bufferView": 4,
      "byteOffset": 1267472,
      "componentType": 5126,
      "count": 4,
      "max": [
        -0.8341724872589111,
        2.3534502702204918e-07,
        -0.551503598690033,
        1.0
      ],
      "min": [
        -0.8341725468635559,
        2.3534501281119447e-07,
        -0.5515037178993225,
        1.0
      ],
      "type": "VEC4"
    },
    {
      "bufferView": 2,
      "byteOffset": 633736,
      "componentType": 5126,
      "count": 4,
      "max": [
        0.08261703699827194,
        0.3747113049030304
      ],
      "min": [
        0.07336615771055222,
        0.3599560260772705
      ],
      "type": "VEC2"
    },
    {
      "bufferView": 1,
      "byteOffset": 1207704,
      "componentType": 5125,
      "count": 6,
      "type": "SCALAR"
    },
    {
      "bufferView": 3,
      "byteOffset": 1901304,
      "componentType": 5126,
      "count": 4,
      "max": [
        0.7804790735244751,
        0.8601244688034058,
        -0.46032142639160156
      ],
      "min": [
        0.6527053117752075,
        0.8601244688034058,
        -0.6126141548156738
      ],
      "type": "VEC3"
    },
    {
      "bufferView": 3,
      "byteOffset": 1901352,
      "componentType": 5126,
      "count": 4,
      "max": [
        2.8212994607201836e-07,
        1.0,
        -6.084022174945858e-14
      ],
      "min": [
        2.8212994607201836e-07,
        1.0,
        -6.084022174945858e-14
      ],
      "type": "VEC3"
    },
    {
      "bufferView": 4,
      "byteOffset": 1267536,
      "componentType": 5126,
      "count": 4,
      "max": [
        0.4083804488182068,
        -1.1521628096033965e-07,
        0.9128118753433228,
        1.0
      ],
      "min": [
        0.408380389213562,
        -1.1521630227662172e-07,
        0.9128117561340332,
        1.0
      ],
      "type": "VEC4"
    },
    {
      "bufferView": 2,
      "byteOffset": 633768,
      "componentType": 5126,
      "count": 4,
      "max": [
        0.6685376763343811,
        0.668184220790863
      ],
      "min": [
        0.6522189974784851,
        0.6579533815383911
      ],
      "type": "VEC2"
    },
    {
      "bufferView": 1,
      "byteOffset": 1207728,
      "componentType": 5125,
      "count": 6,
      "type": "SCALAR"
    },
    {
      "bufferView": 3,
      "byteOffset": 1901400,
      "componentType": 5126,
      "count": 450,
      "max": [
        0.7676399350166321,
        0.9388469457626343,
        -0.6218082904815674
      ],
      "min": [
        0.5402202010154724,
        0.8570120334625244,
        -0.7853999137878418
      ],
      "type": "VEC3"
    },
    {
      "bufferView": 3,
      "byteOffset": 1906800,
      "componentType": 5126,
      "count": 450,
      "max": [
        0.9885492324829102,
        0.9999935030937195,
        0.9912865161895752
      ],
      "min": [
        -0.9885492324829102,
        -0.9999940395355225,
        -0.9888080954551697
      ],
      "type": "VEC3"
    },
    {
      "bufferView": 4,
      "byteOffset": 1267600,
      "componentType": 5126,
      "count": 450,
      "max": [
        0.996802806854248,
        0.9998658895492554,
        0.9928327798843384,
        1.0
      ],
      "min": [
        -0.998605489730835,
        -0.9906889200210571,
        -0.989477276802063,
        1.0
      ],
      "type": "VEC4"
    },
    {
      "bufferView": 2,
      "byteOffset": 633800,
      "componentType": 5126,
      "count": 450,
      "max": [
        0.9980069994926453,
        0.9946954846382141
      ],
      "min": [
        0.0026879562065005302,
        0.1662241816520691
      ],
      "type": "VEC2"
    },
    {
      "bufferView": 1,
      "byteOffset": 1207752,
      "componentType": 5125,
      "count": 1092,
      "type": "SCALAR"
    },
    {
      "bufferView": 3,
      "byteOffset": 1912200,
      "componentType": 5126,
      "count": 1362,
      "max": [
        1.5169190168380737,
        0.9388469457626343,
        0.24420121312141418
      ],
      "min": [
        1.1889948844909668,
        0.8570119738578796,
        -0.23625460267066956
      ],
      "type": "VEC3"
    },
    {
      "bufferView": 3,
      "byteOffset": 1928544,
      "componentType": 5126,
      "count": 1362,
      "max": [
        0.9995705485343933,
        0.9999935030937195,
        0.9999449253082275
      ],
      "min": [
        -0.9995705485343933,
        -0.9999940395355225,
        -0.9996196031570435
      ],
      "type": "VEC3"
    },
    {
      "bufferView": 4,
      "byteOffset": 1274800,
      "componentType": 5126,
      "count": 1362,
      "max": [
        0.9999462962150574,
        0.9998739957809448,
        0.9999777674674988,
        1.0
      ],
      "min": [
        -0.999968409538269,
        -0.998377799987793,
        -0.9997100234031677,
        1.0
      ],
      "type": "VEC4"
    },
    {
      "bufferView": 2,
      "byteOffset": 637400,
      "componentType": 5126,
      "count": 1362,
      "max": [
        0.9980069994926453,
        0.9966940879821777
      ],
      "min": [
        0.0026879562065005302,
        0.1662241816520691
      ],
      "type": "VEC2"
    },
    {
      "bufferView": 1,
      "byteOffset": 1212120,
      "componentType": 5125,
      "count": 3300,
      "type": "SCALAR"
    },
    {
      "bufferView": 5,
      "componentType": 5126,
      "count": 4,
      "max": [
        100.00000762939453,
        1.5416086990300952e-16,
        3.1473859962716233e-07,
        0.0,
        1.1829180391364808e-16,
        100.00000762939453,
        1.5416085666811972e-16,
        0.0,
        0.25881895422935486,
        1.1829181714853788e-16,
        100.00001525878906,
        0.0,
        1.6177685260772705,
        2.1461634635925293,
        1.8953526020050049,
        1.0
      ],
      "min": [
        -0.9659258723258972,
        -0.25881892442703247,
        -0.25881892442703247,
        0.0,
        -3.2584134146418364e-07,
        1.1181598927475188e-14,
        -1.0000001192092896,
        0.0,
        0.0,
        -0.9659259915351868,
        -0.9659259915351868,
        0.0,
        0.0,
        -1.4901161193847656e-08,
        0.0,
        1.0
      ],
      "type": "MAT4"
    },
    {
      "bufferView": 0,
      "componentType": 5123,
      "count": 1615,
      "type": "VEC4"
    },
    {
      "bufferView": 4,
      "byteOffset": 1296592,
      "componentType": 5126,
      "count": 1615,
      "max": [
        1.0,
        0.0,
        0.0,
        0.0
      ],
      "min": [
        1.0,
        0.0,
        0.0,
        0.0
      ],
      "type": "VEC4"
    },
    {
      "bufferView": 0,
      "byteOffset": 12920,
      "componentType": 5123,
      "count": 18295,
      "type": "VEC4"
    },
    {
      "bufferView": 4,
      "byteOffset": 1322432,
      "componentType": 5126,
      "count": 18295,
      "max": [
        1.0,
        0.0,
        0.0,
        0.0
      ],
      "min": [
        1.0,
        0.0,
        0.0,
        0.0
      ],
      "type": "VEC4"
    },
    {
      "bufferView": 0,
      "byteOffset": 159280,
      "componentType": 5123,
      "count": 7798,
      "type": "VEC4"
    },
    {
      "bufferView": 4,
      "byteOffset": 1615152,
      "componentType": 5126,
      "count": 7798,
      "max": [
        1.0,
        0.0,
        0.0,
        0.0
      ],
      "min": [
        1.0,
        0.0,
        0.0,
        0.0
      ],
      "type": "VEC4"
    },
    {
      "bufferView": 0,
      "byteOffset": 221664,
      "componentType": 5123,
      "count": 4240,
      "type": "VEC4"
    },
    {
      "bufferView": 4,
      "byteOffset": 1739920,
      "componentType": 5126,
      "count": 4240,
      "max": [
        1.0,
        0.0,
        0.0,
        0.0
      ],
      "min": [
        1.0,
        0.0,
        0.0,
        0.0
      ],
      "type": "VEC4"
    },
    {
      "bufferView": 0,
      "byteOffset": 255584,
      "componentType": 5123,
      "count": 3312,
      "type": "VEC4"
    },
    {
      "bufferView": 4,
      "byteOffset": 1807760,
      "componentType": 5126,
      "count": 3312,
      "max": [
        1.0,
        0.0,
        0.0,
        0.0
      ],
      "min": [
        1.0,
        0.0,
        0.0,
        0.0
      ],
      "type": "VEC4"
    },
    {
      "bufferView": 0,
      "byteOffset": 282080,
      "componentType": 5123,
      "count": 6797,
      "type": "VEC4"
    },
    {
      "bufferView": 4,
      "byteOffset": 1860752,
      "componentType": 5126,
      "count": 6797,
      "max": [
        1.0,
        0.0,
        0.0,
        0.0
      ],
      "min": [
        1.0,
        0.0,
        0.0,
        0.0
      ],
      "type": "VEC4"
    },
    {
      "bufferView": 0,
      "byteOffset": 336456,
      "componentType": 5123,
      "count": 17252,
      "type": "VEC4"
    },
    {
      "bufferView": 4,
      "byteOffset": 1969504,
      "componentType": 5126,
      "count": 17252,
      "max": [
        1.0,
        0.0,
        0.0,
        0.0
      ],
      "min": [
        1.0,
        0.0,
        0.0,
        0.0
      ],
      "type": "VEC4"
    },
    {
      "bufferView": 0,
      "byteOffset": 474472,
      "componentType": 5123,
      "count": 975,
      "type": "VEC4"
    },
    {
      "bufferView": 4,
      "byteOffset": 2245536,
      "componentType": 5126,
      "count": 975,
      "max": [
        1.0,
        0.0,
        0.0,
        0.0
      ],
      "min": [
        1.0,
        0.0,
        0.0,
        0.0
      ],
      "type": "VEC4"
    },
    {
      "bufferView": 0,
      "byteOffset": 482272,
      "componentType": 5123,
      "count": 4071,
      "type": "VEC4"
    },
    {
      "bufferView": 4,
      "byteOffset": 2261136,
      "componentType": 5126,
      "count": 4071,
      "max": [
        1.0,
        0.0,
        0.0,
        0.0
      ],
      "min": [
        1.0,
        0.0,
        0.0,
        0.0
      ],
      "type": "VEC4"
    },
    {
      "bufferView": 0,
      "byteOffset": 514840,
      "componentType": 5123,
      "count": 3915,
      "type": "VEC4"
    },
    {
      "bufferView": 4,
      "byteOffset": 2326272,
      "componentType": 5126,
      "count": 3915,
      "max": [
        1.0,
        0.0,
        0.0,
        0.0
      ],
      "min": [
        1.0,
        0.0,
        0.0,
        0.0
      ],
      "type": "VEC4"
    },
    {
      "bufferView": 0,
      "byteOffset": 546160,
      "componentType": 5123,
      "count": 4323,
      "type": "VEC4"
    },
    {
      "bufferView": 4,
      "byteOffset": 2388912,
      "componentType": 5126,
      "count": 4323,
      "max": [
        1.0,
        0.0,
        0.0,
        0.0
      ],
      "min": [
        1.0,
        0.0,
        0.0,
        0.0
      ],
      "type": "VEC4"
    },
    {
      "bufferView": 0,
      "byteOffset": 580744,
      "componentType": 5123,
      "count": 360,
      "type": "VEC4"
    },
    {
      "bufferView": 4,
      "byteOffset": 2458080,
      "componentType": 5126,
      "count": 360,
      "max": [
        1.0,
        0.0,
        0.0,
        0.0
      ],
      "min": [
        1.0,
        0.0,
        0.0,
        0.0
      ],
      "type": "VEC4"
    },
    {
      "bufferView": 0,
      "byteOffset": 583624,
      "componentType": 5123,
      "count": 6075,
      "type": "VEC4"
    },
    {
      "bufferView": 4,
      "byteOffset": 2463840,
      "componentType": 5126,
      "count": 6075,
      "max": [
        1.0,
        0.0,
        0.0,
        0.0
      ],
      "min": [
        1.0,
        0.0,
        0.0,
        0.0
      ],
      "type": "VEC4"
    },
    {
      "bufferView": 0,
      "byteOffset": 632224,
      "componentType": 5123,
      "count": 4,
      "type": "VEC4"
    },
    {
      "bufferView": 4,
      "byteOffset": 2561040,
      "componentType": 5126,
      "count": 4,
      "max": [
        1.0,
        0.0,
        0.0,
        0.0
      ],
      "min": [
        1.0,
        0.0,
        0.0,
        0.0
      ],
      "type": "VEC4"
    },
    {
      "bufferView": 0,
      "byteOffset": 632256,
      "componentType": 5123,
      "count": 177,
      "type": "VEC4"
    },
    {
      "bufferView": 4,
      "byteOffset": 2561104,
      "componentType": 5126,
      "count": 177,
      "max": [
        1.0,
        0.0,
        0.0,
        0.0
      ],
      "min": [
        1.0,
        0.0,
        0.0,
        0.0
      ],
      "type": "VEC4"
    },
    {
      "bufferView": 0,
      "byteOffset": 633672,
      "componentType": 5123,
      "count": 4,
      "type": "VEC4"
    },
    {
      "bufferView": 4,
      "byteOffset": 2563936,
      "componentType": 5126,
      "count": 4,
      "max": [
        1.0,
        0.0,
        0.0,
        0.0
      ],
      "min": [
        1.0,
        0.0,
        0.0,
        0.0
      ],
      "type": "VEC4"
    },
    {
      "bufferView": 0,
      "byteOffset": 633704,
      "componentType": 5123,
      "count": 4,
      "type": "VEC4"
    },
    {
      "bufferView": 4,
      "byteOffset": 2564000,
      "componentType": 5126,
      "count": 4,
      "max": [
        1.0,
        0.0,
        0.0,
        0.0
      ],
      "min": [
        1.0,
        0.0,
        0.0,
        0.0
      ],
      "type": "VEC4"
    },
    {
      "bufferView": 0,
      "byteOffset": 633736,
      "componentType": 5123,
      "count": 4,
      "type": "VEC4"
    },
    {
      "bufferView": 4,
      "byteOffset": 2564064,
      "componentType": 5126,
      "count": 4,
      "max": [
        1.0,
        0.0,
        0.0,
        0.0
      ],
      "min": [
        1.0,
        0.0,
        0.0,
        0.0
      ],
      "type": "VEC4"
    },
    {
      "bufferView": 0,
      "byteOffset": 633768,
      "componentType": 5123,
      "count": 4,
      "type": "VEC4"
    },
    {
      "bufferView": 4,
      "byteOffset": 2564128,
      "componentType": 5126,
      "count": 4,
      "max": [
        1.0,
        0.0,
        0.0,
        0.0
      ],
      "min": [
        1.0,
        0.0,
        0.0,
        0.0
      ],
      "type": "VEC4"
    },
    {
      "bufferView": 0,
      "byteOffset": 633800,
      "componentType": 5123,
      "count": 450,
      "type": "VEC4"
    },
    {
      "bufferView": 4,
      "byteOffset": 2564192,
      "componentType": 5126,
      "count": 450,
      "max": [
        1.0,
        0.0,
        0.0,
        0.0
      ],
      "min": [
        1.0,
        0.0,
        0.0,
        0.0
      ],
      "type": "VEC4"
    },
    {
      "bufferView": 0,
      "byteOffset": 637400,
      "componentType": 5123,
      "count": 1362,
      "type": "VEC4"
    },
    {
      "bufferView": 4,
      "byteOffset": 2571392,
      "componentType": 5126,
      "count": 1362,
      "max": [
        1.0,
        0.0,
        0.0,
        0.0
      ],
      "min": [
        1.0,
        0.0,
        0.0,
        0.0
      ],
      "type": "VEC4"
    },
    {
      "bufferView": 6,
      "componentType": 5126,
      "count": 6,
      "max": [
        3.7083332538604736
      ],
      "min": [
        0.0
      ],
      "type": "SCALAR"
    },
    {
      "bufferView": 7,
      "componentType": 5126,
      "count": 6,
      "max": [
        1.0,
        1.0,
        1.0
      ],
      "min": [
        0.9999998807907104,
        0.9999998807907104,
        1.0
      ],
      "type": "VEC3"
    },
    {
      "bufferView": 6,
      "byteOffset": 24,
      "componentType": 5126,
      "count": 173,
      "max": [
        3.7083332538604736
      ],
      "min": [
        0.0
      ],
      "type": "SCALAR"
    },
    {
      "bufferView": 8,
      "componentType": 5126,
      "count": 173,
      "max": [
        0.7071068286895752,
        0.6109189987182617,
        0.6402583122253418,
        0.7071067094802856
      ],
      "min": [
        -0.35427215695381165,
        -0.6402581930160522,
        -0.6109189987182617,
        -0.3542725443840027
      ],
      "type": "VEC4"
    }
  ],
  "animations": [
    {
      "channels": [
        {
          "sampler": 0,
          "target": {
            "node": 8,
            "path": "scale"
          }
        },
        {
          "sampler": 1,
          "target": {
            "node": 8,
            "path": "rotation"
          }
        }
      ],
      "name": "Safe_Open",
      "samplers": [
        {
          "input": 148,
          "interpolation": "LINEAR",
          "output": 149
        },
        {
          "input": 150,
          "interpolation": "LINEAR",
          "output": 151
        }
      ]
    }
  ],
  "asset": {
    "extras": {
      "author": "Bársh (https://sketchfab.com/borsh_and)",
      "license": "SKETCHFAB Standard (https://sketchfab.com/licenses)",
      "source": "https://sketchfab.com/3d-models/mafia-office-asset-pack-3888154f059e4199ade215621e29a3c9",
      "title": "Mafia Office Asset Pack"
    },
    "generator": "Sketchfab-17.17.0",
    "version": "2.0"
  },
  "bufferViews": [
    {
      "buffer": 0,
      "byteLength": 648296,
      "byteStride": 8,
      "name": "shortBufferViews",
      "target": 34962
    },
    {
      "buffer": 0,
      "byteLength": 1225320,
      "byteOffset": 648296,
      "name": "floatBufferViews",
      "target": 34963
    },
    {
      "buffer": 0,
      "byteLength": 648296,
      "byteOffset": 1873616,
      "byteStride": 8,
      "name": "floatBufferViews",
      "target": 34962
    },
    {
      "buffer": 0,
      "byteLength": 1944888,
      "byteOffset": 2521912,
      "byteStride": 12,
      "name": "floatBufferViews",
      "target": 34962
    },
    {
      "buffer": 0,
      "byteLength": 2593184,
      "byteOffset": 4466800,
      "byteStride": 16,
      "name": "floatBufferViews",
      "target": 34962
    },
    {
      "buffer": 0,
      "byteLength": 256,
      "byteOffset": 7059984,
      "name": "floatBufferViews"
    },
    {
      "buffer": 0,
      "byteLength": 716,
      "byteOffset": 7060240,
      "name": "floatBufferViews"
    },
    {
      "buffer": 0,
      "byteLength": 72,
      "byteOffset": 7060956,
      "byteStride": 12,
      "name": "floatBufferViews"
    },
    {
      "buffer": 0,
      "byteLength": 2768,
      "byteOffset": 7061028,
      "byteStride": 16,
      "name": "floatBufferViews"
    }
  ],
  "buffers": [
    {
      "byteLength": 7063796,
      "uri": "scene.bin"
    }
  ],
  "images": [
    {
      "uri": "textures/Bake_Mafia_Assets_1_baseColor.png"
    },
    {
      "uri": "textures/Bake_Mafia_Assets_1_metallicRoughness.png"
    },
    {
      "uri": "textures/Bake_Mafia_Assets_1_normal.png"
    }
  ],
  "materials": [
    {
      "doubleSided": true,
      "name": "Bake_Mafia_Assets_1",
      "normalTexture": {
        "index": 2
      },
      "pbrMetallicRoughness": {
        "baseColorTexture": {
          "index": 0
        },
        "metallicRoughnessTexture": {
          "index": 1
        }
      }
    }
  ],
  "meshes": [
    {
      "name": "Plane.001_Bake_Mafia_Assets_1_0",
      "primitives": [
        {
          "attributes": {
            "JOINTS_0": 106,
            "NORMAL": 1,
            "POSITION": 0,
            "TANGENT": 2,
            "TEXCOORD_0": 3,
            "TEXCOORD_1": 3,
            "TEXCOORD_2": 3,
            "WEIGHTS_0": 107
          },
          "indices": 4,
          "material": 0,
          "mode": 4
        }
      ]
    },
    {
      "name": "Plane.003_Bake_Mafia_Assets_1_0",
      "primitives": [
        {
          "attributes": {
            "JOINTS_0": 108,
            "NORMAL": 6,
            "POSITION": 5,
            "TANGENT": 7,
            "TEXCOORD_0": 8,
            "TEXCOORD_1": 8,
            "TEXCOORD_2": 8,
            "WEIGHTS_0": 109
          },
          "indices": 9,
          "material": 0,
          "mode": 4
        }
      ]
    },
    {
      "name": "Plane.005_Bake_Mafia_Assets_1_0",
      "primitives": [
        {
          "attributes": {
            "JOINTS_0": 110,
            "NORMAL": 11,
            "POSITION": 10,
            "TANGENT": 12,
            "TEXCOORD_0": 13,
            "TEXCOORD_1": 13,
            "TEXCOORD_2": 13,
            "WEIGHTS_0": 111
          },
          "indices": 14,
          "material": 0,
          "mode": 4
        }
      ]
    },
    {
      "name": "Plane.006_Bake_Mafia_Assets_1_0",
      "primitives": [
        {
          "attributes": {
            "JOINTS_0": 112,
            "NORMAL": 16,
            "POSITION": 15,
            "TANGENT": 17,
            "TEXCOORD_0": 18,
            "TEXCOORD_1": 18,
            "TEXCOORD_2": 18,
            "WEIGHTS_0": 113
          },
          "indices": 19,
          "material": 0,
          "mode": 4
        }
      ]
    },
    {
      "name": "Plane.007_Bake_Mafia_Assets_1_0",
      "primitives": [
        {
          "attributes": {
            "JOINTS_0": 114,
            "NORMAL": 21,
            "POSITION": 20,
            "TANGENT": 22,
            "TEXCOORD_0": 23,
            "TEXCOORD_1": 23,
            "TEXCOORD_2": 23,
            "WEIGHTS_0": 115
          },
          "indices": 24,
          "material": 0,
          "mode": 4
        }
      ]
    },
    {
      "name": "Plane.009_Bake_Mafia_Assets_1_0",
      "primitives": [
        {
          "attributes": {
            "JOINTS_0": 116,
            "NORMAL": 26,
            "POSITION": 25,
            "TANGENT": 27,
            "TEXCOORD_0": 28,
            "TEXCOORD_1": 28,
            "TEXCOORD_2": 28,
            "WEIGHTS_0": 117
          },
          "indices": 29,
          "material": 0,
          "mode": 4
        }
      ]
    },
    {
      "name": "Plane.010_Bake_Mafia_Assets_1_0",
      "primitives": [
        {
          "attributes": {
            "JOINTS_0": 118,
            "NORMAL": 31,
            "POSITION": 30,
            "TANGENT": 32,
            "TEXCOORD_0": 33,
            "TEXCOORD_1": 33,
            "TEXCOORD_2": 33,
            "WEIGHTS_0": 119
          },
          "indices": 34,
          "material": 0,
          "mode": 4
        }
      ]
    },
    {
      "name": "Plane.011_Bake_Mafia_Assets_1_0",
      "primitives": [
        {
          "attributes": {
            "JOINTS_0": 120,
            "NORMAL": 36,
            "POSITION": 35,
            "TANGENT": 37,
            "TEXCOORD_0": 38,
            "TEXCOORD_1": 38,
            "TEXCOORD_2": 38,
            "WEIGHTS_0": 121
          },
          "indices": 39,
          "material": 0,
          "mode": 4
        }
      ]
    },
    {
      "name": "Plane.012_Bake_Mafia_Assets_1_0",
      "primitives": [
        {
          "attributes": {
            "JOINTS_0": 122,
            "NORMAL": 41,
            "POSITION": 40,
            "TANGENT": 42,
            "TEXCOORD_0": 43,
            "TEXCOORD_1": 43,
            "TEXCOORD_2": 43,
            "WEIGHTS_0": 123
          },
          "indices": 44,
          "material": 0,
          "mode": 4
        }
      ]
    },
    {
      "name": "Plane.013_Bake_Mafia_Assets_1_0",
      "primitives": [
        {
          "attributes": {
            "JOINTS_0": 124,
            "NORMAL": 46,
            "POSITION": 45,
            "TANGENT": 47,
            "TEXCOORD_0": 48,
            "TEXCOORD_1": 48,
            "TEXCOORD_2": 48,
            "WEIGHTS_0": 125
          },
          "indices": 49,
          "material": 0,
          "mode": 4
        }
      ]
    },
    {
      "name": "Plane.014_Bake_Mafia_Assets_1_0",
      "primitives": [
        {
          "attributes": {
            "JOINTS_0": 126,
            "NORMAL": 51,
            "POSITION": 50,
            "TANGENT": 52,
            "TEXCOORD_0": 53,
            "TEXCOORD_1": 53,
            "TEXCOORD_2": 53,
            "WEIGHTS_0": 127
          },
          "indices": 54,
          "material": 0,
          "mode": 4
        }
      ]
    },
    {
      "name": "Plane.015_Bake_Mafia_Assets_1_0",
      "primitives": [
        {
          "attributes": {
            "JOINTS_0": 128,
            "NORMAL": 56,
            "POSITION": 55,
            "TANGENT": 57,
            "TEXCOORD_0": 58,
            "TEXCOORD_1": 58,
            "TEXCOORD_2": 58,
            "WEIGHTS_0": 129
          },
          "indices": 59,
          "material": 0,
          "mode": 4
        }
      ]
    },
    {
      "name": "Plane.016_Bake_Mafia_Assets_1_0",
      "primitives": [
        {
          "attributes": {
            "JOINTS_0": 130,
            "NORMAL": 61,
            "POSITION": 60,
            "TANGENT": 62,
            "TEXCOORD_0": 63,
            "TEXCOORD_1": 63,
            "TEXCOORD_2": 63,
            "WEIGHTS_0": 131
          },
          "indices": 64,
          "material": 0,
          "mode": 4
        }
      ]
    },
    {
      "name": "Plane.017_Bake_Mafia_Assets_1_0",
      "primitives": [
        {
          "attributes": {
            "JOINTS_0": 132,
            "NORMAL": 66,
            "POSITION": 65,
            "TANGENT": 67,
            "TEXCOORD_0": 68,
            "TEXCOORD_1": 68,
            "TEXCOORD_2": 68,
            "WEIGHTS_0": 133
          },
          "indices": 69,
          "material": 0,
          "mode": 4
        }
      ]
    },
    {
      "name": "Plane.018_Bake_Mafia_Assets_1_0",
      "primitives": [
        {
          "attributes": {
            "JOINTS_0": 134,
            "NORMAL": 71,
            "POSITION": 70,
            "TANGENT": 72,
            "TEXCOORD_0": 73,
            "TEXCOORD_1": 73,
            "TEXCOORD_2": 73,
            "WEIGHTS_0": 135
          },
          "indices": 74,
          "material": 0,
          "mode": 4
        }
      ]
    },
    {
      "name": "Plane.019_Bake_Mafia_Assets_1_0",
      "primitives": [
        {
          "attributes": {
            "JOINTS_0": 136,
            "NORMAL": 76,
            "POSITION": 75,
            "TANGENT": 77,
            "TEXCOORD_0": 78,
            "TEXCOORD_1": 78,
            "TEXCOORD_2": 78,
            "WEIGHTS_0": 137
          },
          "indices": 79,
          "material": 0,
          "mode": 4
        }
      ]
    },
    {
      "name": "Plane.020_Bake_Mafia_Assets_1_0",
      "primitives": [
        {
          "attributes": {
            "JOINTS_0": 138,
            "NORMAL": 81,
            "POSITION": 80,
            "TANGENT": 82,
            "TEXCOORD_0": 83,
            "TEXCOORD_1": 83,
            "TEXCOORD_2": 83,
            "WEIGHTS_0": 139
          },
          "indices": 84,
          "material": 0,
          "mode": 4
        }
      ]
    },
    {
      "name": "Plane.021_Bake_Mafia_Assets_1_0",
      "primitives": [
        {
          "attributes": {
            "JOINTS_0": 140,
            "NORMAL": 86,
            "POSITION": 85,
            "TANGENT": 87,
            "TEXCOORD_0": 88,
            "TEXCOORD_1": 88,
            "TEXCOORD_2": 88,
            "WEIGHTS_0": 141
          },
          "indices": 89,
          "material": 0,
          "mode": 4
        }
      ]
    },
    {
      "name": "Plane.022_Bake_Mafia_Assets_1_0",
      "primitives": [
        {
          "attributes": {
            "JOINTS_0": 142,
            "NORMAL": 91,
            "POSITION": 90,
            "TANGENT": 92,
            "TEXCOORD_0": 93,
            "TEXCOORD_1": 93,
            "TEXCOORD_2": 93,
            "WEIGHTS_0": 143
          },
          "indices": 94,
          "material": 0,
          "mode": 4
        }
      ]
    },
    {
      "name": "Plane.023_Bake_Mafia_Assets_1_0",
      "primitives": [
        {
          "attributes": {
            "JOINTS_0": 144,
            "NORMAL": 96,
            "POSITION": 95,
            "TANGENT": 97,
            "TEXCOORD_0": 98,
            "TEXCOORD_1": 98,
            "TEXCOORD_2": 98,
            "WEIGHTS_0": 145
          },
          "indices": 99,
          "material": 0,
          "mode": 4
        }
      ]
    },
    {
      "name": "Plane.024_Bake_Mafia_Assets_1_0",
      "primitives": [
        {
          "attributes": {
            "JOINTS_0": 146,
            "NORMAL": 101,
            "POSITION": 100,
            "TANGENT": 102,
            "TEXCOORD_0": 103,
            "TEXCOORD_1": 103,
            "TEXCOORD_2": 103,
            "WEIGHTS_0": 147
          },
          "indices": 104,
          "material": 0,
          "mode": 4
        }
      ]
    }
  ],
  "nodes": [
    {
      "children": [
        1
      ],
      "matrix": [
        0.3747568428516388,
        4.5050426681565226e-17,
        -0.9271231293678284,
        0.0,
        -0.9271231293678284,
        2.440249974097171e-16,
        -0.3747568428516388,
        0.0,
        2.0935827483664843e-16,
        1.0,
        1.332173317725467e-16,
        0.0,
        0.0,
        0.0,
        0.0,
        1.0
      ],
      "name": "Sketchfab_model"
    },
    {
      "children": [
        2
      ],
      "matrix": [
        0.009999999776482582,
        0.0,
        0.0,
        0.0,
        0.0,
        0.0,
        0.009999999776482582,
        0.0,
        0.0,
        -0.009999999776482582,
        0.0,
        0.0,
        0.0,
        0.0,
        0.0,
        1.0
      ],
      "name": "764fa024653048a3a09ff5454b548079.fbx"
    },
    {
      "children": [
        3
      ],
      "name": "Object_2"
    },
    {
      "children": [
        4,
        52,
        53,
        54,
        55,
        56,
        57,
        58,
        59,
        60,
        61,
        62,
        63,
        64,
        65,
        66,
        67,
        68,
        69,
        70,
        71,
        72
      ],
      "name": "RootNode"
    },
    {
      "children": [
        5
      ],
      "name": "Armature.001",
      "rotation": [
        0.09229590743780136,
        0.7010573744773865,
        0.7010574340820313,
        -0.09229590743780136
      ],
      "scale": [
        100.00000762939453,
        100.00000762939453,
        100.0
      ],
      "translation": [
        205.31976318359375,
        1.4901161193847656e-06,
        141.2061004638672
      ]
    },
    {
      "children": [
        6,
        11,
        13,
        15,
        17,
        19,
        21,
        23,
        25,
        27,
        29,
        31,
        33,
        35,
        37,
        39,
        41,
        43,
        45,
        47,
        49,
        51,
        10,
        12,
        14,
        16,
        18,
        20,
        22,
        24,
        26,
        28,
        30,
        32,
        34,
        36,
        38,
        40,
        42,
        44,
        46,
        48,
        50
      ],
      "name": "Object_5"
    },
    {
      "children": [
        7
      ],
      "name": "_rootJoint"
    },
    {
      "children": [
        8
      ],
      "name": "Root_00",
      "rotation": [
        0.7071068286895752,
        1.9626157052021065e-17,
        1.9626153743298615e-17,
        0.7071067094802856
      ]
    },
    {
      "children": [
        9
      ],
      "name": "Bone_01",
      "rotation": [
        0.7071068286895752,
        -1.1520234721729139e-07,
        -1.1520233300643667e-07,
        0.7071067094802856
      ],
      "translation": [
        0.2944105267524719,
        0.8577989339828491,
        -0.25081098079681396
      ]
    },
    {
      "name": "Bone_end_02",
      "rotation": [
        -2.6469779601696886e-23,
        -1.3234889800848443e-23,
        -2.7755575615628914e-17,
        1.0
      ],
      "translation": [
        0.0,
        0.49000000953674316,
        1.1102230246251565e-16
      ]
    },
    {
      "matrix": [
        2.1582155560076513e-05,
        0.0,
        100.000006183947,
        0.0,
        100.000006183947,
        -2.821299745597973e-05,
        -2.1582155560076516e-05,
        0.0,
        2.8212999074552892e-05,
        100.00001192092896,
        -6.088972971894092e-12,
        0.0,
        69.9812202834355,
        85.69803386926651,
        -94.52225733025853,
        1.0
      ],
      "name": "Object_10"
    },
    {
      "mesh": 0,
      "name": "Object_11",
      "skin": 0
    },
    {
      "matrix": [
        2.1582155560076513e-05,
        0.0,
        100.000006183947,
        0.0,
        100.000006183947,
        -2.821299745597973e-05,
        -2.1582155560076516e-05,
        0.0,
        2.8212999074552892e-05,
        100.00001192092896,
        -6.088972971894092e-12,
        0.0,
        100.0000129484215,
        0.0,
        -1.3541530051952577e-05,
        1.0
      ],
      "name": "Object_12"
    },
    {
      "mesh": 1,
      "name": "Object_13",
      "skin": 0
    },
    {
      "matrix": [
        2.1582155560076513e-05,
        0.0,
        100.000006183947,
        0.0,
        100.000006183947,
        -2.821299745597973e-05,
        -2.1582155560076516e-05,
        0.0,
        2.8212999074552892e-05,
        100.00001192092896,
        -6.088972971894092e-12,
        0.0,
        -41.12666035406801,
        0.19958231132477522,
        -44.87270008863061,
        1.0
      ],
      "name": "Object_14"
    },
    {
      "mesh": 2,
      "name": "Object_15",
      "skin": 0
    },
    {
      "matrix": [
        2.1582155560076513e-05,
        0.0,
        100.000006183947,
        0.0,
        100.000006183947,
        -2.821299745597973e-05,
        -2.1582155560076516e-05,
        0.0,
        2.8212999074552892e-05,
        100.00001192092896,
        -6.088972971894092e-12,
        0.0,
        93.09039043485882,
        0.16226210864260793,
        -195.08795477255126,
        1.0
      ],
      "name": "Object_16"
    },
    {
      "mesh": 3,
      "name": "Object_17",
      "skin": 0
    },
    {
      "matrix": [
        2.1582155560076513e-05,
        0.0,
        100.000006183947,
        0.0,
        100.000006183947,
        -2.821299745597973e-05,
        -2.1582155560076516e-05,
        0.0,
        2.8212999074552892e-05,
        100.00001192092896,
        -6.088972971894092e-12,
        0.0,
        100.0000129484215,
        0.0,
        -1.3541530051952577e-05,
        1.0
      ],
      "name": "Object_18"
    },
    {
      "mesh": 4,
      "name": "Object_19",
      "skin": 0
    },
    {
      "matrix": [
        2.1582155560076513e-05,
        0.0,
        100.000006183947,
        0.0,
        100.000006183947,
        -2.821299745597973e-05,
        -2.1582155560076516e-05,
        0.0,
        2.8212999074552892e-05,
        100.00001192092896,
        -6.088972971894092e-12,
        0.0,
        119.35029542302618,
        85.23519784212112,
        -60.12673608665523,
        1.0
      ],
      "name": "Object_20"
    },
    {
      "mesh": 5,
      "name": "Object_21",
      "skin": 0
    },
    {
      "matrix": [
        2.1582155560076513e-05,
        0.0,
        100.000006183947,
        0.0,
        100.000006183947,
        -2.821299745597973e-05,
        -2.1582155560076516e-05,
        0.0,
        2.8212999074552892e-05,
        100.00001192092896,
        -6.088972971894092e-12,
        0.0,
        98.24717708612434,
        93.728007376194,
        64.42945192776483,
        1.0
      ],
      "name": "Object_22"
    },
    {
      "mesh": 6,
      "name": "Object_23",
      "skin": 0
    },
    {
      "matrix": [
        2.1582155560076513e-05,
        0.0,
        100.000006183947,
        0.0,
        100.000006183947,
        -2.821299745597973e-05,
        -2.1582155560076516e-05,
        0.0,
        2.8212999074552892e-05,
        100.00001192092896,
        -6.088972971894092e-12,
        0.0,
        60.13877030849835,
        400.72965770959854,
        -40.01002548728138,
        1.0
      ],
      "name": "Object_24"
    },
    {
      "mesh": 7,
      "name": "Object_25",
      "skin": 0
    },
    {
      "matrix": [
        8.524740441524971e-06,
        0.0,
        100.00000351194204,
        0.0,
        100.00000351194207,
        -2.8212997457078224e-05,
        -8.524740441524973e-06,
        0.0,
        2.821299982950519e-05,
        100.00001192092896,
        -2.405084921768012e-12,
        0.0,
        205.3198168451877,
        1.4901048395188354e-06,
        141.20602437802427,
        1.0
      ],
      "name": "Object_26"
    },
    {
      "mesh": 8,
      "name": "Object_27",
      "skin": 0
    },
    {
      "matrix": [
        8.524740441524971e-06,
        0.0,
        100.00000351194204,
        0.0,
        100.00000351194207,
        -2.8212997457078224e-05,
        -8.524740441524973e-06,
        0.0,
        2.821299982950519e-05,
        100.00001192092896,
        -2.405084921768012e-12,
        0.0,
        100.0000129484215,
        0.0,
        -1.3541530051952577e-05,
        1.0
      ],
      "name": "Object_28"
    },
    {
      "mesh": 9,
      "name": "Object_29",
      "skin": 0
    },
    {
      "matrix": [
        2.1582155560076513e-05,
        0.0,
        100.000006183947,
        0.0,
        100.000006183947,
        -2.821299745597973e-05,
        -2.1582155560076516e-05,
        0.0,
        2.8212999074552892e-05,
        100.00001192092896,
        -6.088972971894092e-12,
        0.0,
        129.2475290397315,
        86.10466867685318,
        71.46130316562721,
        1.0
      ],
      "name": "Object_30"
    },
    {
      "mesh": 10,
      "name": "Object_31",
      "skin": 0
    },
    {
      "matrix": [
        2.1582155560076513e-05,
        0.0,
        100.000006183947,
        0.0,
        100.000006183947,
        -2.821299745597973e-05,
        -2.1582155560076516e-05,
        0.0,
        2.8212999074552892e-05,
        100.00001192092896,
        -6.088972971894092e-12,
        0.0,
        67.83309960270117,
        85.84674745798111,
        66.85490887424976,
        1.0
      ],
      "name": "Object_32"
    },
    {
      "mesh": 11,
      "name": "Object_33",
      "skin": 0
    },
    {
      "matrix": [
        2.1582155560076513e-05,
        0.0,
        100.000006183947,
        0.0,
        100.000006183947,
        -2.821299745597973e-05,
        -2.1582155560076516e-05,
        0.0,
        2.8212999074552892e-05,
        100.00001192092896,
        -6.088972971894092e-12,
        0.0,
        215.7650564772198,
        63.99782449007034,
        137.78650653818033,
        1.0
      ],
      "name": "Object_34"
    },
    {
      "mesh": 12,
      "name": "Object_35",
      "skin": 0
    },
    {
      "matrix": [
        2.1582155560076513e-05,
        0.0,
        100.000006183947,
        0.0,
        100.000006183947,
        -2.821299745597973e-05,
        -2.1582155560076516e-05,
        0.0,
        2.8212999074552892e-05,
        100.00001192092896,
        -6.088972971894092e-12,
        0.0,
        93.25249117697513,
        85.96213012933731,
        -3.216350775625415,
        1.0
      ],
      "name": "Object_36"
    },
    {
      "mesh": 13,
      "name": "Object_37",
      "skin": 0
    },
    {
      "matrix": [
        2.1582155560076513e-05,
        0.0,
        100.000006183947,
        0.0,
        100.000006183947,
        -2.821299745597973e-05,
        -2.1582155560076516e-05,
        0.0,
        2.8212999074552892e-05,
        100.00001192092896,
        -6.088972971894092e-12,
        0.0,
        67.6912988042368,
        89.71086889505386,
        84.17221092549062,
        1.0
      ],
      "name": "Object_38"
    },
    {
      "mesh": 14,
      "name": "Object_39",
      "skin": 0
    },
    {
      "matrix": [
        2.1582155560076513e-05,
        0.0,
        100.000006183947,
        0.0,
        100.000006183947,
        -2.821299745597973e-05,
        -2.1582155560076516e-05,
        0.0,
        2.8212999074552892e-05,
        100.00001192092896,
        -6.088972971894092e-12,
        0.0,
        121.44684879417855,
        86.01246029138565,
        27.343504861747306,
        1.0
      ],
      "name": "Object_40"
    },
    {
      "mesh": 15,
      "name": "Object_41",
      "skin": 0
    },
    {
      "matrix": [
        2.1582155560076513e-05,
        0.0,
        100.000006183947,
        0.0,
        100.000006183947,
        -2.821299745597973e-05,
        -2.1582155560076516e-05,
        0.0,
        2.8212999074552892e-05,
        100.00001192092896,
        -6.088972971894092e-12,
        0.0,
        113.41415607019917,
        86.031873524189,
        34.379592737848725,
        1.0
      ],
      "name": "Object_42"
    },
    {
      "mesh": 16,
      "name": "Object_43",
      "skin": 0
    },
    {
      "matrix": [
        2.1582155560076513e-05,
        0.0,
        100.000006183947,
        0.0,
        100.000006183947,
        -2.821299745597973e-05,
        -2.1582155560076516e-05,
        0.0,
        2.8212999074552892e-05,
        100.00001192092896,
        -6.088972971894092e-12,
        0.0,
        99.82201242392557,
        86.01246625185013,
        39.580061223280836,
        1.0
      ],
      "name": "Object_44"
    },
    {
      "mesh": 17,
      "name": "Object_45",
      "skin": 0
    },
    {
      "matrix": [
        2.1582155560076513e-05,
        0.0,
        100.000006183947,
        0.0,
        100.000006183947,
        -2.821299745597973e-05,
        -2.1582155560076516e-05,
        0.0,
        2.8212999074552892e-05,
        100.00001192092896,
        -6.088972971894092e-12,
        0.0,
        71.65922230310389,
        86.0124483704567,
        -53.64678943516083,
        1.0
      ],
      "name": "Object_46"
    },
    {
      "mesh": 18,
      "name": "Object_47",
      "skin": 0
    },
    {
      "matrix": [
        2.1582155560076513e-05,
        0.0,
        100.000006183947,
        0.0,
        100.000006183947,
        -2.821299745597973e-05,
        -2.1582155560076516e-05,
        0.0,
        2.8212999074552892e-05,
        100.00001192092896,
        -6.088972971894092e-12,
        0.0,
        65.37167271880753,
        85.91180592775345,
        -70.61432754394014,
        1.0
      ],
      "name": "Object_48"
    },
    {
      "mesh": 19,
      "name": "Object_49",
      "skin": 0
    },
    {
      "matrix": [
        2.1582155560076513e-05,
        0.0,
        100.000006183947,
        0.0,
        100.000006183947,
        -2.821299745597973e-05,
        -2.1582155560076516e-05,
        0.0,
        2.8212999074552892e-05,
        100.00001192092896,
        -6.088972971894092e-12,
        0.0,
        140.17686816001105,
        85.92023402452469,
        -6.823417096406558,
        1.0
      ],
      "name": "Object_50"
    },
    {
      "mesh": 20,
      "name": "Object_51",
      "skin": 0
    },
    {
      "name": "Plane.001",
      "rotation": [
        0.5000001192092896,
        0.49999988079071045,
        0.5,
        -0.4999999701976776
      ],
      "scale": [
        100.0,
        100.0,
        100.0
      ],
      "translation": [
        69.98121643066406,
        85.69802856445313,
        -94.52223205566406
      ]
    },
    {
      "name": "Plane.003",
      "rotation": [
        0.5000001192092896,
        0.49999988079071045,
        0.5,
        -0.4999999701976776
      ],
      "scale": [
        100.0,
        100.0,
        100.0
      ],
      "translation": [
        100.0,
        0.0,
        -5.9604644775390625e-06
      ]
    },
    {
      "name": "Plane.005",
      "rotation": [
        0.5000001192092896,
        0.49999988079071045,
        0.5,
        -0.4999999701976776
      ],
      "scale": [
        100.0,
        100.0,
        100.0
      ],
      "translation": [
        -41.12666702270508,
        0.1995822936296463,
        -44.87268829345703
      ]
    },
    {
      "name": "Plane.006",
      "rotation": [
        0.5000001192092896,
        0.49999988079071045,
        0.5,
        -0.4999999701976776
      ],
      "scale": [
        100.0,
        100.0,
        100.0
      ],
      "translation": [
        93.09038543701172,
        0.16226209700107574,
        -195.0879364013672
      ]
    },
    {
      "name": "Plane.007",
      "rotation": [
        0.5000001192092896,
        0.49999988079071045,
        0.5,
        -0.4999999701976776
      ],
      "scale": [
        100.0,
        100.0,
        100.0
      ],
      "translation": [
        100.0,
        0.0,
        -5.9604644775390625e-06
      ]
    },
    {
      "name": "Plane.009",
      "rotation": [
        0.5000001192092896,
        0.49999988079071045,
        0.5,
        -0.4999999701976776
      ],
      "scale": [
        100.0,
        100.0,
        100.0
      ],
      "translation": [
        119.35028076171875,
        85.23519134521484,
        -60.1267204284668
      ]
    },
    {
      "name": "Plane.010",
      "rotation": [
        0.5000001192092896,
        0.49999988079071045,
        0.5,
        -0.4999999701976776
      ],
      "scale": [
        100.0,
        100.0,
        100.0
      ],
      "translation": [
        98.24716186523438,
        93.72799682617188,
        64.4294662475586
      ]
    },
    {
      "name": "Plane.011",
      "rotation": [
        0.5000001192092896,
        0.49999988079071045,
        0.5,
        -0.4999999701976776
      ],
      "scale": [
        100.0,
        100.0,
        100.0
      ],
      "translation": [
        60.138763427734375,
        400.7296142578125,
        -40.01002502441406
      ]
    },
    {
      "name": "Plane.012",
      "rotation": [
        0.5000001192092896,
        0.4999999701976776,
        0.5000001192092896,
        -0.5
      ],
      "scale": [
        100.0,
        100.0,
        100.0
      ],
      "translation": [
        205.31979370117188,
        1.4901047507009935e-06,
        141.20603942871094
      ]
    },
    {
      "name": "Plane.013",
      "rotation": [
        0.5000001192092896,
        0.4999999701976776,
        0.5000001192092896,
        -0.5
      ],
      "scale": [
        100.0,
        100.0,
        100.0
      ],
      "translation": [
        100.0,
        0.0,
        -5.9604644775390625e-06
      ]
    },
    {
      "name": "Plane.014",
      "rotation": [
        0.5000001192092896,
        0.49999988079071045,
        0.5,
        -0.4999999701976776
      ],
      "scale": [
        100.0,
        100.0,
        100.0
      ],
      "translation": [
        129.2475128173828,
        86.10466003417969,
        71.46131134033203
      ]
    },
    {
      "name": "Plane.015",
      "rotation": [
        0.5000001192092896,
        0.49999988079071045,
        0.5,
        -0.4999999701976776
      ],
      "scale": [
        100.0,
        100.0,
        100.0
      ],
      "translation": [
        67.83309173583984,
        85.84674072265625,
        66.85491943359375
      ]
    },
    {
      "name": "Plane.016",
      "rotation": [
        0.5000001192092896,
        0.49999988079071045,
        0.5,
        -0.4999999701976776
      ],
      "scale": [
        100.0,
        100.0,
        100.0
      ],
      "translation": [
        215.76504516601563,
        63.99781799316406,
        137.78651428222656
      ]
    },
    {
      "name": "Plane.017",
      "rotation": [
        0.5000001192092896,
        0.49999988079071045,
        0.5,
        -0.4999999701976776
      ],
      "scale": [
        100.0,
        100.0,
        100.0
      ],
      "translation": [
        93.25247955322266,
        85.96212005615234,
        -3.216341018676758
      ]
    },
    {
      "name": "Plane.018",
      "rotation": [
        0.5000001192092896,
        0.49999988079071045,
        0.5,
        -0.4999999701976776
      ],
      "scale": [
        100.0,
        100.0,
        100.0
      ],
      "translation": [
        67.69127655029297,
        89.71086120605469,
        84.1722183227539
      ]
    },
    {
      "name": "Plane.019",
      "rotation": [
        0.5000001192092896,
        0.49999988079071045,
        0.5,
        -0.4999999701976776
      ],
      "scale": [
        100.0,
        100.0,
        100.0
      ],
      "translation": [
        121.44683837890625,
        86.012451171875,
        27.343517303466797
      ]
    },
    {
      "name": "Plane.020",
      "rotation": [
        0.5000001192092896,
        0.49999988079071045,
        0.5,
        -0.4999999701976776
      ],
      "scale": [
        100.0,
        100.0,
        100.0
      ],
      "translation": [
        113.41414642333984,
        86.03186798095703,
        34.379600524902344
      ]
    },
    {
      "name": "Plane.021",
      "rotation": [
        0.5000001192092896,
        0.49999988079071045,
        0.5,
        -0.4999999701976776
      ],
      "scale": [
        100.0,
        100.0,
        100.0
      ],
      "translation": [
        99.8219985961914,
        86.01245880126953,
        39.5800666809082
      ]
    },
    {
      "name": "Plane.022",
      "rotation": [
        0.5000001192092896,
        0.49999988079071045,
        0.5,
        -0.4999999701976776
      ],
      "scale": [
        100.0,
        100.0,
        100.0
      ],
      "translation": [
        71.65921020507813,
        86.01244354248047,
        -53.646785736083984
      ]
    },
    {
      "name": "Plane.023",
      "rotation": [
        0.5000001192092896,
        0.49999988079071045,
        0.5,
        -0.4999999701976776
      ],
      "scale": [
        100.0,
        100.0,
        100.0
      ],
      "translation": [
        65.37165832519531,
        85.91179656982422,
        -70.61431884765625
      ]
    },
    {
      "name": "Plane.024",
      "rotation": [
        0.5000001192092896,
        0.49999988079071045,
        0.5,
        -0.4999999701976776
      ],
      "scale": [
        100.0,
        100.0,
        100.0
      ],
      "translation": [
        140.17684936523438,
        85.92022705078125,
        -6.823400974273682
      ]
    }
  ],
  "samplers": [
    {
      "magFilter": 9729,
      "minFilter": 9987,
      "wrapS": 10497,
      "wrapT": 10497
    }
  ],
  "scene": 0,
  "scenes": [
    {
      "name": "Sketchfab_Scene",
      "nodes": [
        0
      ]
    }
  ],
  "skins": [
    {
      "inverseBindMatrices": 105,
      "joints": [
        6,
        7,
        8,
        9
      ],
      "skeleton": 6
    }
  ],
  "textures": [
    {
      "sampler": 0,
      "source": 0
    },
    {
      "sampler": 0,
      "source": 1
    },
    {
      "sampler": 0,
      "source": 2
    }
  ]
}
