{
  "accessors": [
    {
      "bufferView": 2,
      "componentType": 5126,
      "count": 55211,
      "max": [
        0.020316999405622482,
        0.022918500006198883,
        0.28417301177978516
      ],
      "min": [
        -0.02283339947462082,
        -0.015759600326418877,
        0.19282400608062744
      ],
      "type": "VEC3"
    },
    {
      "bufferView": 2,
      "byteOffset": 662532,
      "componentType": 5126,
      "count": 55211,
      "max": [
        0.9999853372573853,
        0.9999991059303284,
        0.9999695420265198
      ],
      "min": [
        -0.9999763369560242,
        -0.9999985098838806,
        -0.9999405145645142
      ],
      "type": "VEC3"
    },
    {
      "bufferView": 3,
      "componentType": 5126,
      "count": 55211,
      "max": [
        0.9999892115592957,
        0.9999579787254333,
        0.9999925494194031,
        1.0
      ],
      "min": [
        -0.9998495578765869,
        -0.9999920129776001,
        -0.9999995231628418,
        -1.0
      ],
      "type": "VEC4"
    },
    {
      "bufferView": 1,
      "componentType": 5126,
      "count": 55211,
      "max": [
        0.9999989867210388,
        0.9999420046806335
      ],
      "min": [
        5.58793988858497e-09,
        0.0
      ],
      "type": "VEC2"
    },
    {
      "bufferView": 0,
      "componentType": 5125,
      "count": 313956,
      "type": "SCALAR"
    }
  ],
  "asset": {
    "extras": {
      "author": "Giordani_Mathieu (https://sketchfab.com/Giordani_Mathieu)",
      "license": "CC-BY-4.0 (http://creativecommons.org/licenses/by/4.0/)",
      "source": "https://sketchfab.com/3d-models/fallen-angel-80d17df5ba9a4cc69b4f0ed8b38eb6d6",
      "title": "Fallen Angel"
    },
    "generator": "Sketchfab-12.68.0",
    "version": "2.0"
  },
  "bufferViews": [
    {
      "buffer": 0,
      "byteLength": 1255824,
      "name": "floatBufferViews",
      "target": 34963
    },
    {
      "buffer": 0,
      "byteLength": 441688,
      "byteOffset": 1255824,
      "byteStride": 8,
      "name": "floatBufferViews",
      "target": 34962
    },
    {
      "buffer": 0,
      "byteLength": 1325064,
      "byteOffset": 1697512,
      "byteStride": 12,
      "name": "floatBufferViews",
      "target": 34962
    },
    {
      "buffer": 0,
      "byteLength": 883376,
      "byteOffset": 3022576,
      "byteStride": 16,
      "name": "floatBufferViews",
      "target": 34962
    }
  ],
  "buffers": [
    {
      "byteLength": 3905952,
      "uri": "scene.bin"
    }
  ],
  "images": [
    {
      "uri": "textures/Low_chapeau1_baseColor.png"
    },
    {
      "uri": "textures/Low_chapeau1_metallicRoughness.png"
    },
    {
      "uri": "textures/Low_chapeau1_normal.png"
    }
  ],
  "materials": [
    {
      "doubleSided": true,
      "name": "Low_chapeau1",
      "normalTexture": {
        "index": 2
      },
      "occlusionTexture": {
        "index": 1
      },
      "pbrMetallicRoughness": {
        "baseColorTexture": {
          "index": 0
        },
        "metallicRoughnessTexture": {
          "index": 1
        }
      }
    }
  ],
  "meshes": [
    {
      "name": "Object_0",
      "primitives": [
        {
          "attributes": {
            "NORMAL": 1,
            "POSITION": 0,
            "TANGENT": 2,
            "TEXCOORD_0": 3
          },
          "indices": 4,
          "material": 0,
          "mode": 4
        }
      ]
    }
  ],
  "nodes": [
    {
      "children": [
        1
      ],
      "matrix": [
        8.652496337890625,
        0.0,
        0.0,
        0.0,
        0.0,
        1.921240130962204e-15,
        -8.652496337890625,
        0.0,
        0.0,
        8.652496337890625,
        1.921240130962204e-15,
        0.0,
        0.0,
        0.0,
        0.0,
        1.0
      ],
      "name": "Sketchfab_model"
    },
    {
      "children": [
        2
      ],
      "name": "Final_angel.obj.cleaner.materialmerger.gles"
    },
    {
      "mesh": 0,
      "name": "Object_2"
    }
  ],
  "samplers": [
    {
      "magFilter": 9729,
      "minFilter": 9987,
      "wrapS": 10497,
      "wrapT": 10497
    }
  ],
  "scene": 0,
  "scenes": [
    {
      "name": "Sketchfab_Scene",
      "nodes": [
        0
      ]
    }
  ],
  "textures": [
    {
      "sampler": 0,
      "source": 0
    },
    {
      "sampler": 0,
      "source": 1
    },
    {
      "sampler": 0,
      "source": 2
    }
  ]
}
