{
  "accessors": [
    {
      "bufferView": 2,
      "componentType": 5126,
      "count": 102,
      "max": [
        0.23062968254089355,
        0.22925305366516113,
        0.18513202667236328
      ],
      "min": [
        -0.23615288734436035,
        -0.23497891426086426,
        -0.006373345851898193
      ],
      "type": "VEC3"
    },
    {
      "bufferView": 2,
      "byteOffset": 1224,
      "componentType": 5126,
      "count": 102,
      "max": [
        0.9940921068191528,
        0.7151350975036621,
        0.9987120628356934
      ],
      "min": [
        -0.9665235877037048,
        -0.715106725692749,
        -0.9987120628356934
      ],
      "type": "VEC3"
    },
    {
      "bufferView": 3,
      "componentType": 5126,
      "count": 102,
      "max": [
        0.7599635124206543,
        0.9904758930206299,
        0.9988418221473694,
        1.0
      ],
      "min": [
        -0.9450348019599915,
        -0.985241174697876,
        -0.9075326323509216,
        -1.0
      ],
      "type": "VEC4"
    },
    {
      "bufferView": 1,
      "componentType": 5126,
      "count": 102,
      "max": [
        0.9970840215682983,
        0.9852341413497925
      ],
      "min": [
        0.001953409519046545,
        0.5059526562690735
      ],
      "type": "VEC2"
    },
    {
      "bufferView": 1,
      "byteOffset": 816,
      "componentType": 5126,
      "count": 102,
      "max": [
        0.9970840215682983,
        0.9852341413497925
      ],
      "min": [
        0.001953409519046545,
        0.5059526562690735
      ],
      "type": "VEC2"
    },
    {
      "bufferView": 1,
      "byteOffset": 1632,
      "componentType": 5126,
      "count": 102,
      "max": [
        0.9970840215682983,
        0.9852341413497925
      ],
      "min": [
        0.001953409519046545,
        0.5059526562690735
      ],
      "type": "VEC2"
    },
    {
      "bufferView": 0,
      "componentType": 5125,
      "count": 132,
      "type": "SCALAR"
    },
    {
      "bufferView": 2,
      "byteOffset": 2448,
      "componentType": 5126,
      "count": 441,
      "max": [
        0.1617264449596405,
        -0.06663310527801514,
        0.46118706464767456
      ],
      "min": [
        -0.2825721502304077,
        -0.1784292459487915,
        0.10232698917388916
      ],
      "type": "VEC3"
    },
    {
      "bufferView": 2,
      "byteOffset": 7740,
      "componentType": 5126,
      "count": 441,
      "max": [
        0.5395523905754089,
        -0.8419520258903503,
        0.420736163854599
      ],
      "min": [
        -0.21904779970645905,
        -0.9999358057975769,
        -0.4207353889942169
      ],
      "type": "VEC3"
    },
    {
      "bufferView": 1,
      "byteOffset": 2448,
      "componentType": 5126,
      "count": 441,
      "max": [
        0.9802573323249817,
        0.8700786828994751
      ],
      "min": [
        0.01956447958946228,
        0.09867152571678162
      ],
      "type": "VEC2"
    },
    {
      "bufferView": 1,
      "byteOffset": 5976,
      "componentType": 5126,
      "count": 441,
      "max": [
        0.9802573323249817,
        0.8700786828994751
      ],
      "min": [
        0.01956447958946228,
        0.09867152571678162
      ],
      "type": "VEC2"
    },
    {
      "bufferView": 1,
      "byteOffset": 9504,
      "componentType": 5126,
      "count": 441,
      "max": [
        0.9802573323249817,
        0.8700786828994751
      ],
      "min": [
        0.01956447958946228,
        0.09867152571678162
      ],
      "type": "VEC2"
    },
    {
      "bufferView": 0,
      "byteOffset": 528,
      "componentType": 5125,
      "count": 2400,
      "type": "SCALAR"
    },
    {
      "bufferView": 2,
      "byteOffset": 13032,
      "componentType": 5126,
      "count": 2268,
      "max": [
        0.30435359477996826,
        0.3823716640472412,
        0.8970906138420105
      ],
      "min": [
        -0.39916545152664185,
        -0.2834152579307556,
        -0.0033186336513608694
      ],
      "type": "VEC3"
    },
    {
      "bufferView": 2,
      "byteOffset": 40248,
      "componentType": 5126,
      "count": 2268,
      "max": [
        0.999773383140564,
        0.999022364616394,
        1.0
      ],
      "min": [
        -0.9996830821037292,
        -0.9989597797393799,
        -1.0
      ],
      "type": "VEC3"
    },
    {
      "bufferView": 3,
      "byteOffset": 1632,
      "componentType": 5126,
      "count": 2268,
      "max": [
        0.9988932609558105,
        0.9996321201324463,
        0.12094157934188843,
        1.0
      ],
      "min": [
        -0.9994723200798035,
        -0.9996058344841003,
        -0.10804957151412964,
        -1.0
      ],
      "type": "VEC4"
    },
    {
      "bufferView": 1,
      "byteOffset": 13032,
      "componentType": 5126,
      "count": 2268,
      "max": [
        0.8689676523208618,
        0.5824819207191467
      ],
      "min": [
        0.001951722544617951,
        0.001955238403752446
      ],
      "type": "VEC2"
    },
    {
      "bufferView": 1,
      "byteOffset": 31176,
      "componentType": 5126,
      "count": 2268,
      "max": [
        0.8689676523208618,
        0.5824819207191467
      ],
      "min": [
        0.001951722544617951,
        0.001955238403752446
      ],
      "type": "VEC2"
    },
    {
      "bufferView": 1,
      "byteOffset": 49320,
      "componentType": 5126,
      "count": 2268,
      "max": [
        0.8689676523208618,
        0.5824819207191467
      ],
      "min": [
        0.001951722544617951,
        0.001955238403752446
      ],
      "type": "VEC2"
    },
    {
      "bufferView": 0,
      "byteOffset": 10128,
      "componentType": 5125,
      "count": 12564,
      "type": "SCALAR"
    },
    {
      "bufferView": 2,
      "byteOffset": 67464,
      "componentType": 5126,
      "count": 19442,
      "max": [
        0.6168206930160522,
        0.3031039237976074,
        0.5324439406394958
      ],
      "min": [
        -0.6218199729919434,
        -0.3126484453678131,
        -2.246815711259842e-08
      ],
      "type": "VEC3"
    },
    {
      "bufferView": 2,
      "byteOffset": 300768,
      "componentType": 5126,
      "count": 19442,
      "max": [
        1.0,
        1.0,
        1.0
      ],
      "min": [
        -1.0,
        -1.0,
        -1.0
      ],
      "type": "VEC3"
    },
    {
      "bufferView": 3,
      "byteOffset": 37920,
      "componentType": 5126,
      "count": 19442,
      "max": [
        1.0,
        1.0,
        1.0,
        1.0
      ],
      "min": [
        -1.0,
        -1.0,
        -1.0,
        -1.0
      ],
      "type": "VEC4"
    },
    {
      "bufferView": 1,
      "byteOffset": 67464,
      "componentType": 5126,
      "count": 19442,
      "max": [
        0.9980430603027344,
        0.9965937733650208
      ],
      "min": [
        0.0019496679306030273,
        0.0019515752792358398
      ],
      "type": "VEC2"
    },
    {
      "bufferView": 1,
      "byteOffset": 223000,
      "componentType": 5126,
      "count": 19442,
      "max": [
        0.9980430603027344,
        0.9965937733650208
      ],
      "min": [
        0.0019496679306030273,
        0.0019515752792358398
      ],
      "type": "VEC2"
    },
    {
      "bufferView": 1,
      "byteOffset": 378536,
      "componentType": 5126,
      "count": 19442,
      "max": [
        0.9980430603027344,
        0.9965937733650208
      ],
      "min": [
        0.0019496679306030273,
        0.0019515752792358398
      ],
      "type": "VEC2"
    },
    {
      "bufferView": 0,
      "byteOffset": 60384,
      "componentType": 5125,
      "count": 80136,
      "type": "SCALAR"
    },
    {
      "bufferView": 2,
      "byteOffset": 534072,
      "componentType": 5126,
      "count": 16584,
      "max": [
        0.46601128578186035,
        0.4794362485408783,
        0.5294919013977051
      ],
      "min": [
        -0.4763544201850891,
        -0.4711294174194336,
        -2.3329630494117737e-07
      ],
      "type": "VEC3"
    },
    {
      "bufferView": 2,
      "byteOffset": 733080,
      "componentType": 5126,
      "count": 16584,
      "max": [
        0.9968317151069641,
        0.9994083642959595,
        1.0
      ],
      "min": [
        -0.9968311190605164,
        -0.9994077086448669,
        -1.0
      ],
      "type": "VEC3"
    },
    {
      "bufferView": 3,
      "byteOffset": 348992,
      "componentType": 5126,
      "count": 16584,
      "max": [
        0.9996400475502014,
        0.9997668862342834,
        1.0,
        1.0
      ],
      "min": [
        -0.9983901381492615,
        -0.9957553148269653,
        -1.0,
        -1.0
      ],
      "type": "VEC4"
    },
    {
      "bufferView": 1,
      "byteOffset": 534072,
      "componentType": 5126,
      "count": 16584,
      "max": [
        0.9979095458984375,
        0.9965929388999939
      ],
      "min": [
        0.0019519925117492676,
        0.0019528103293851018
      ],
      "type": "VEC2"
    },
    {
      "bufferView": 1,
      "byteOffset": 666744,
      "componentType": 5126,
      "count": 16584,
      "max": [
        0.9979095458984375,
        0.9965929388999939
      ],
      "min": [
        0.0019519925117492676,
        0.0019528103293851018
      ],
      "type": "VEC2"
    },
    {
      "bufferView": 1,
      "byteOffset": 799416,
      "componentType": 5126,
      "count": 16584,
      "max": [
        0.9979095458984375,
        0.9965929388999939
      ],
      "min": [
        0.0019519925117492676,
        0.0019528103293851018
      ],
      "type": "VEC2"
    },
    {
      "bufferView": 0,
      "byteOffset": 380928,
      "componentType": 5125,
      "count": 56370,
      "type": "SCALAR"
    },
    {
      "bufferView": 2,
      "byteOffset": 932088,
      "componentType": 5126,
      "count": 15463,
      "max": [
        0.3700989782810211,
        0.3717426657676697,
        1.0456794500350952
      ],
      "min": [
        -0.37042105197906494,
        -0.37130457162857056,
        -3.771856427192688e-08
      ],
      "type": "VEC3"
    },
    {
      "bufferView": 2,
      "byteOffset": 1117644,
      "componentType": 5126,
      "count": 15463,
      "max": [
        0.9992321729660034,
        0.9990549087524414,
        1.0
      ],
      "min": [
        -0.9992536306381226,
        -0.9993878602981567,
        -1.0
      ],
      "type": "VEC3"
    },
    {
      "bufferView": 3,
      "byteOffset": 614336,
      "componentType": 5126,
      "count": 15463,
      "max": [
        0.9987266659736633,
        0.9973011612892151,
        0.9994649291038513,
        1.0
      ],
      "min": [
        -0.9998185038566589,
        -0.9999880790710449,
        -0.9999716281890869,
        -1.0
      ],
      "type": "VEC4"
    },
    {
      "bufferView": 1,
      "byteOffset": 932088,
      "componentType": 5126,
      "count": 15463,
      "max": [
        0.9960068464279175,
        0.9212764501571655
      ],
      "min": [
        0.10216228663921356,
        0.18195243179798126
      ],
      "type": "VEC2"
    },
    {
      "bufferView": 1,
      "byteOffset": 1055792,
      "componentType": 5126,
      "count": 15463,
      "max": [
        0.9960068464279175,
        0.9212764501571655
      ],
      "min": [
        0.10216228663921356,
        0.18195243179798126
      ],
      "type": "VEC2"
    },
    {
      "bufferView": 1,
      "byteOffset": 1179496,
      "componentType": 5126,
      "count": 15463,
      "max": [
        0.9960068464279175,
        0.9212764501571655
      ],
      "min": [
        0.10216228663921356,
        0.18195243179798126
      ],
      "type": "VEC2"
    },
    {
      "bufferView": 0,
      "byteOffset": 606408,
      "componentType": 5125,
      "count": 83196,
      "type": "SCALAR"
    },
    {
      "bufferView": 2,
      "byteOffset": 1303200,
      "componentType": 5126,
      "count": 4647,
      "max": [
        -0.09825241565704346,
        1.0506349802017212,
        1.4710320234298706
      ],
      "min": [
        -0.8858476281166077,
        0.47887638211250305,
        0.5137857794761658
      ],
      "type": "VEC3"
    },
    {
      "bufferView": 2,
      "byteOffset": 1358964,
      "componentType": 5126,
      "count": 4647,
      "max": [
        0.9999998211860657,
        0.9998155832290649,
        1.0
      ],
      "min": [
        -1.0,
        -0.9997448325157166,
        -1.0
      ],
      "type": "VEC3"
    },
    {
      "bufferView": 3,
      "byteOffset": 861744,
      "componentType": 5126,
      "count": 4647,
      "max": [
        0.9999915957450867,
        0.999940812587738,
        1.0,
        1.0
      ],
      "min": [
        -0.9995164275169373,
        -0.9996761083602905,
        -1.0,
        -1.0
      ],
      "type": "VEC4"
    },
    {
      "bufferView": 1,
      "byteOffset": 1303200,
      "componentType": 5126,
      "count": 4647,
      "max": [
        0.9979738593101501,
        0.9974923729896545
      ],
      "min": [
        0.001949593424797058,
        0.10866755992174149
      ],
      "type": "VEC2"
    },
    {
      "bufferView": 1,
      "byteOffset": 1340376,
      "componentType": 5126,
      "count": 4647,
      "max": [
        0.9979738593101501,
        0.9974923729896545
      ],
      "min": [
        0.001949593424797058,
        0.10866755992174149
      ],
      "type": "VEC2"
    },
    {
      "bufferView": 1,
      "byteOffset": 1377552,
      "componentType": 5126,
      "count": 4647,
      "max": [
        0.9979738593101501,
        0.9974923729896545
      ],
      "min": [
        0.001949593424797058,
        0.10866755992174149
      ],
      "type": "VEC2"
    },
    {
      "bufferView": 0,
      "byteOffset": 939192,
      "componentType": 5125,
      "count": 14151,
      "type": "SCALAR"
    },
    {
      "bufferView": 2,
      "byteOffset": 1414728,
      "componentType": 5126,
      "count": 1058,
      "max": [
        0.6110491752624512,
        0.12207573652267456,
        1.5071502923965454
      ],
      "min": [
        -0.0011048316955566406,
        -0.23571988940238953,
        -0.001782253384590149
      ],
      "type": "VEC3"
    },
    {
      "bufferView": 2,
      "byteOffset": 1427424,
      "componentType": 5126,
      "count": 1058,
      "max": [
        0.9896419048309326,
        0.9985324144363403,
        0.9996610879898071
      ],
      "min": [
        -0.9973205327987671,
        -0.9986519813537598,
        -0.9994595050811768
      ],
      "type": "VEC3"
    },
    {
      "bufferView": 3,
      "byteOffset": 936096,
      "componentType": 5126,
      "count": 1058,
      "max": [
        0.9969021081924438,
        0.9998224377632141,
        0.9999995827674866,
        1.0
      ],
      "min": [
        -0.9975736737251282,
        -0.9998329281806946,
        -0.9999626874923706,
        -1.0
      ],
      "type": "VEC4"
    },
    {
      "bufferView": 1,
      "byteOffset": 1414728,
      "componentType": 5126,
      "count": 1058,
      "max": [
        0.9266118407249451,
        0.9327518939971924
      ],
      "min": [
        0.1582328975200653,
        0.5359582901000977
      ],
      "type": "VEC2"
    },
    {
      "bufferView": 1,
      "byteOffset": 1423192,
      "componentType": 5126,
      "count": 1058,
      "max": [
        0.9266118407249451,
        0.9327518939971924
      ],
      "min": [
        0.1582328975200653,
        0.5359582901000977
      ],
      "type": "VEC2"
    },
    {
      "bufferView": 1,
      "byteOffset": 1431656,
      "componentType": 5126,
      "count": 1058,
      "max": [
        0.9266118407249451,
        0.9327518939971924
      ],
      "min": [
        0.1582328975200653,
        0.5359582901000977
      ],
      "type": "VEC2"
    },
    {
      "bufferView": 0,
      "byteOffset": 995796,
      "componentType": 5125,
      "count": 4800,
      "type": "SCALAR"
    },
    {
      "bufferView": 2,
      "byteOffset": 1440120,
      "componentType": 5126,
      "count": 11251,
      "max": [
        0.2129419445991516,
        0.23441576957702637,
        0.3985027074813843
      ],
      "min": [
        -0.198189377784729,
        -0.2529739439487457,
        -0.007779240608215332
      ],
      "type": "VEC3"
    },
    {
      "bufferView": 2,
      "byteOffset": 1575132,
      "componentType": 5126,
      "count": 11251,
      "max": [
        0.9992738962173462,
        0.9975504875183105,
        0.999984085559845
      ],
      "min": [
        -0.9999668002128601,
        -0.9997339844703674,
        -0.9999188184738159
      ],
      "type": "VEC3"
    },
    {
      "bufferView": 3,
      "byteOffset": 953024,
      "componentType": 5126,
      "count": 11251,
      "max": [
        0.9996984601020813,
        0.9991757273674011,
        0.9998295903205872,
        1.0
      ],
      "min": [
        -0.9999532103538513,
        -0.9999296069145203,
        -0.9998499751091003,
        -1.0
      ],
      "type": "VEC4"
    },
    {
      "bufferView": 1,
      "byteOffset": 1440120,
      "componentType": 5126,
      "count": 11251,
      "max": [
        0.9979304671287537,
        0.9972718358039856
      ],
      "min": [
        0.001978963613510132,
        0.17001892626285553
      ],
      "type": "VEC2"
    },
    {
      "bufferView": 1,
      "byteOffset": 1530128,
      "componentType": 5126,
      "count": 11251,
      "max": [
        0.9979304671287537,
        0.9972718358039856
      ],
      "min": [
        0.001978963613510132,
        0.17001892626285553
      ],
      "type": "VEC2"
    },
    {
      "bufferView": 1,
      "byteOffset": 1620136,
      "componentType": 5126,
      "count": 11251,
      "max": [
        0.9979304671287537,
        0.9972718358039856
      ],
      "min": [
        0.001978963613510132,
        0.17001892626285553
      ],
      "type": "VEC2"
    },
    {
      "bufferView": 0,
      "byteOffset": 1014996,
      "componentType": 5125,
      "count": 44232,
      "type": "SCALAR"
    },
    {
      "bufferView": 2,
      "byteOffset": 1710144,
      "componentType": 5126,
      "count": 2006,
      "max": [
        0.08200809359550476,
        0.04192918539047241,
        0.12212830781936646
      ],
      "min": [
        -0.08200809359550476,
        -0.041929155588150024,
        -0.12212830781936646
      ],
      "type": "VEC3"
    },
    {
      "bufferView": 2,
      "byteOffset": 1734216,
      "componentType": 5126,
      "count": 2006,
      "max": [
        0.9973647594451904,
        0.9974934458732605,
        0.996738076210022
      ],
      "min": [
        -0.997330904006958,
        -0.9975817203521729,
        -0.9988364577293396
      ],
      "type": "VEC3"
    },
    {
      "bufferView": 3,
      "byteOffset": 1133040,
      "componentType": 5126,
      "count": 2006,
      "max": [
        0.9998487234115601,
        0.9966745376586914,
        0.9966937303543091,
        1.0
      ],
      "min": [
        -0.9997132420539856,
        -0.9942190647125244,
        -0.9966855049133301,
        -1.0
      ],
      "type": "VEC4"
    },
    {
      "bufferView": 1,
      "byteOffset": 1710144,
      "componentType": 5126,
      "count": 2006,
      "max": [
        0.9979674220085144,
        0.9973889589309692
      ],
      "min": [
        0.015895187854766846,
        0.2459549456834793
      ],
      "type": "VEC2"
    },
    {
      "bufferView": 1,
      "byteOffset": 1726192,
      "componentType": 5126,
      "count": 2006,
      "max": [
        0.9979674220085144,
        0.9973889589309692
      ],
      "min": [
        0.015895187854766846,
        0.2459549456834793
      ],
      "type": "VEC2"
    },
    {
      "bufferView": 1,
      "byteOffset": 1742240,
      "componentType": 5126,
      "count": 2006,
      "max": [
        0.9979674220085144,
        0.9973889589309692
      ],
      "min": [
        0.015895187854766846,
        0.2459549456834793
      ],
      "type": "VEC2"
    },
    {
      "bufferView": 0,
      "byteOffset": 1191924,
      "componentType": 5125,
      "count": 7128,
      "type": "SCALAR"
    },
    {
      "bufferView": 2,
      "byteOffset": 1758288,
      "componentType": 5126,
      "count": 2830,
      "max": [
        0.1900537759065628,
        0.17086471617221832,
        0.3952118158340454
      ],
      "min": [
        -0.18296898901462555,
        -0.19646021723747253,
        -9.622953101029452e-09
      ],
      "type": "VEC3"
    },
    {
      "bufferView": 2,
      "byteOffset": 1792248,
      "componentType": 5126,
      "count": 2830,
      "max": [
        0.9988982677459717,
        0.9969035387039185,
        1.0
      ],
      "min": [
        -0.9988979697227478,
        -0.9969033598899841,
        -0.9932109117507935
      ],
      "type": "VEC3"
    },
    {
      "bufferView": 3,
      "byteOffset": 1165136,
      "componentType": 5126,
      "count": 2830,
      "max": [
        0.9994170069694519,
        0.9999522566795349,
        0.9991339445114136,
        1.0
      ],
      "min": [
        -0.9983472228050232,
        -0.9999523162841797,
        -0.9944539070129395,
        -1.0
      ],
      "type": "VEC4"
    },
    {
      "bufferView": 1,
      "byteOffset": 1758288,
      "componentType": 5126,
      "count": 2830,
      "max": [
        0.995944619178772,
        0.9943700432777405
      ],
      "min": [
        0.0019570994190871716,
        0.001955052837729454
      ],
      "type": "VEC2"
    },
    {
      "bufferView": 1,
      "byteOffset": 1780928,
      "componentType": 5126,
      "count": 2830,
      "max": [
        0.995944619178772,
        0.9943700432777405
      ],
      "min": [
        0.0019570994190871716,
        0.001955052837729454
      ],
      "type": "VEC2"
    },
    {
      "bufferView": 1,
      "byteOffset": 1803568,
      "componentType": 5126,
      "count": 2830,
      "max": [
        0.995944619178772,
        0.9943700432777405
      ],
      "min": [
        0.0019570994190871716,
        0.001955052837729454
      ],
      "type": "VEC2"
    },
    {
      "bufferView": 0,
      "byteOffset": 1220436,
      "componentType": 5125,
      "count": 12486,
      "type": "SCALAR"
    },
    {
      "bufferView": 2,
      "byteOffset": 1826208,
      "componentType": 5126,
      "count": 1677,
      "max": [
        0.3048213720321655,
        0.30764317512512207,
        0.896205723285675
      ],
      "min": [
        -0.31040358543395996,
        -0.3061216473579407,
        -0.0014733965508639812
      ],
      "type": "VEC3"
    },
    {
      "bufferView": 2,
      "byteOffset": 1846332,
      "componentType": 5126,
      "count": 1677,
      "max": [
        1.0,
        1.0,
        1.0
      ],
      "min": [
        -1.0,
        -1.0,
        -0.9999994039535522
      ],
      "type": "VEC3"
    },
    {
      "bufferView": 3,
      "byteOffset": 1210416,
      "componentType": 5126,
      "count": 1677,
      "max": [
        1.0,
        1.0,
        0.9771282076835632,
        1.0
      ],
      "min": [
        -1.0,
        -1.0,
        -0.9771095514297485,
        1.0
      ],
      "type": "VEC4"
    },
    {
      "bufferView": 1,
      "byteOffset": 1826208,
      "componentType": 5126,
      "count": 1677,
      "max": [
        0.9703600406646729,
        0.9949054718017578
      ],
      "min": [
        0.12325030565261841,
        0.21595081686973572
      ],
      "type": "VEC2"
    },
    {
      "bufferView": 1,
      "byteOffset": 1839624,
      "componentType": 5126,
      "count": 1677,
      "max": [
        0.9703600406646729,
        0.9949054718017578
      ],
      "min": [
        0.12325030565261841,
        0.21595081686973572
      ],
      "type": "VEC2"
    },
    {
      "bufferView": 1,
      "byteOffset": 1853040,
      "componentType": 5126,
      "count": 1677,
      "max": [
        0.9703600406646729,
        0.9949054718017578
      ],
      "min": [
        0.12325030565261841,
        0.21595081686973572
      ],
      "type": "VEC2"
    },
    {
      "bufferView": 0,
      "byteOffset": 1270380,
      "componentType": 5125,
      "count": 8508,
      "type": "SCALAR"
    },
    {
      "bufferView": 2,
      "byteOffset": 1866456,
      "componentType": 5126,
      "count": 511,
      "max": [
        0.15855246782302856,
        0.08762550354003906,
        0.015816926956176758
      ],
      "min": [
        -0.15855246782302856,
        -0.08762538433074951,
        -0.015816986560821533
      ],
      "type": "VEC3"
    },
    {
      "bufferView": 2,
      "byteOffset": 1872588,
      "componentType": 5126,
      "count": 511,
      "max": [
        0.991527795791626,
        0.9970307350158691,
        0.9990089535713196
      ],
      "min": [
        -0.9914553165435791,
        -0.9981234073638916,
        -0.9988948702812195
      ],
      "type": "VEC3"
    },
    {
      "bufferView": 3,
      "byteOffset": 1237248,
      "componentType": 5126,
      "count": 511,
      "max": [
        0.995652437210083,
        0.996618390083313,
        0.9980961680412292,
        1.0
      ],
      "min": [
        -0.9992391467094421,
        -0.9954359531402588,
        -0.9981125593185425,
        1.0
      ],
      "type": "VEC4"
    },
    {
      "bufferView": 1,
      "byteOffset": 1866456,
      "componentType": 5126,
      "count": 511,
      "max": [
        0.8994884490966797,
        0.9961538910865784
      ],
      "min": [
        0.0019505525706335902,
        0.42423495650291443
      ],
      "type": "VEC2"
    },
    {
      "bufferView": 1,
      "byteOffset": 1870544,
      "componentType": 5126,
      "count": 511,
      "max": [
        0.8994884490966797,
        0.9961538910865784
      ],
      "min": [
        0.0019505525706335902,
        0.42423495650291443
      ],
      "type": "VEC2"
    },
    {
      "bufferView": 1,
      "byteOffset": 1874632,
      "componentType": 5126,
      "count": 511,
      "max": [
        0.8994884490966797,
        0.9961538910865784
      ],
      "min": [
        0.0019505525706335902,
        0.42423495650291443
      ],
      "type": "VEC2"
    },
    {
      "bufferView": 0,
      "byteOffset": 1304412,
      "componentType": 5125,
      "count": 1920,
      "type": "SCALAR"
    },
    {
      "bufferView": 2,
      "byteOffset": 1878720,
      "componentType": 5126,
      "count": 64,
      "max": [
        -0.1363179087638855,
        0.5680590867996216,
        0.5267872214317322
      ],
      "min": [
        -0.28978919982910156,
        0.4991653263568878,
        0.5135971903800964
      ],
      "type": "VEC3"
    },
    {
      "bufferView": 2,
      "byteOffset": 1879488,
      "componentType": 5126,
      "count": 64,
      "max": [
        0.9217658638954163,
        0.9217613339424133,
        0.8660305738449097
      ],
      "min": [
        -0.6234784126281738,
        -0.9924203157424927,
        -0.8660291433334351
      ],
      "type": "VEC3"
    },
    {
      "bufferView": 3,
      "byteOffset": 1245424,
      "componentType": 5126,
      "count": 64,
      "max": [
        -0.3877469301223755,
        0.9217658638954163,
        0.42566031217575073,
        1.0
      ],
      "min": [
        -0.9397638440132141,
        -0.5641750693321228,
        -0.42568913102149963,
        1.0
      ],
      "type": "VEC4"
    },
    {
      "bufferView": 1,
      "byteOffset": 1878720,
      "componentType": 5126,
      "count": 64,
      "max": [
        0.920386552810669,
        0.9793831706047058
      ],
      "min": [
        0.3944042921066284,
        0.9099550247192383
      ],
      "type": "VEC2"
    },
    {
      "bufferView": 1,
      "byteOffset": 1879232,
      "componentType": 5126,
      "count": 64,
      "max": [
        0.920386552810669,
        0.9793831706047058
      ],
      "min": [
        0.3944042921066284,
        0.9099550247192383
      ],
      "type": "VEC2"
    },
    {
      "bufferView": 1,
      "byteOffset": 1879744,
      "componentType": 5126,
      "count": 64,
      "max": [
        0.920386552810669,
        0.9793831706047058
      ],
      "min": [
        0.3944042921066284,
        0.9099550247192383
      ],
      "type": "VEC2"
    },
    {
      "bufferView": 0,
      "byteOffset": 1312092,
      "componentType": 5125,
      "count": 66,
      "type": "SCALAR"
    },
    {
      "bufferView": 2,
      "byteOffset": 1880256,
      "componentType": 5126,
      "count": 250,
      "max": [
        0.06882989406585693,
        0.1340785026550293,
        0.3401000499725342
      ],
      "min": [
        -0.03129822015762329,
        -0.05531272292137146,
        -0.003793001174926758
      ],
      "type": "VEC3"
    },
    {
      "bufferView": 2,
      "byteOffset": 1883256,
      "componentType": 5126,
      "count": 250,
      "max": [
        0.9968122839927673,
        0.997465193271637,
        0.9930895566940308
      ],
      "min": [
        -0.9963668584823608,
        -0.9948006272315979,
        -0.996275007724762
      ],
      "type": "VEC3"
    },
    {
      "bufferView": 3,
      "byteOffset": 1246448,
      "componentType": 5126,
      "count": 250,
      "max": [
        0.9987743496894836,
        0.9936886429786682,
        0.9847360849380493,
        1.0
      ],
      "min": [
        -0.9955591559410095,
        -0.8851667642593384,
        -0.9994134902954102,
        1.0
      ],
      "type": "VEC4"
    },
    {
      "bufferView": 1,
      "byteOffset": 1880256,
      "componentType": 5126,
      "count": 250,
      "max": [
        0.9980467557907104,
        0.963188111782074
      ],
      "min": [
        0.06980367004871368,
        0.4459531307220459
      ],
      "type": "VEC2"
    },
    {
      "bufferView": 1,
      "byteOffset": 1882256,
      "componentType": 5126,
      "count": 250,
      "max": [
        0.9980467557907104,
        0.963188111782074
      ],
      "min": [
        0.06980367004871368,
        0.4459531307220459
      ],
      "type": "VEC2"
    },
    {
      "bufferView": 1,
      "byteOffset": 1884256,
      "componentType": 5126,
      "count": 250,
      "max": [
        0.9980467557907104,
        0.963188111782074
      ],
      "min": [
        0.06980367004871368,
        0.4459531307220459
      ],
      "type": "VEC2"
    },
    {
      "bufferView": 0,
      "byteOffset": 1312356,
      "componentType": 5125,
      "count": 588,
      "type": "SCALAR"
    },
    {
      "bufferView": 2,
      "byteOffset": 1886256,
      "componentType": 5126,
      "count": 6473,
      "max": [
        0.16902387142181396,
        0.14488613605499268,
        0.07972145080566406
      ],
      "min": [
        -0.16904062032699585,
        -0.14312243461608887,
        0.0
      ],
      "type": "VEC3"
    },
    {
      "bufferView": 2,
      "byteOffset": 1963932,
      "componentType": 5126,
      "count": 6473,
      "max": [
        0.9997522830963135,
        0.999990701675415,
        1.0
      ],
      "min": [
        -0.9997538328170776,
        -0.9999901056289673,
        -1.0
      ],
      "type": "VEC3"
    },
    {
      "bufferView": 3,
      "byteOffset": 1250448,
      "componentType": 5126,
      "count": 6473,
      "max": [
        0.9990184307098389,
        0.9944105744361877,
        1.0,
        1.0
      ],
      "min": [
        -0.9990269541740417,
        -0.9993957281112671,
        -1.0,
        -1.0
      ],
      "type": "VEC4"
    },
    {
      "bufferView": 1,
      "byteOffset": 1886256,
      "componentType": 5126,
      "count": 6473,
      "max": [
        0.9980850219726563,
        0.9972140789031982
      ],
      "min": [
        0.0019527673721313477,
        0.16995276510715485
      ],
      "type": "VEC2"
    },
    {
      "bufferView": 1,
      "byteOffset": 1938040,
      "componentType": 5126,
      "count": 6473,
      "max": [
        0.9980850219726563,
        0.9972140789031982
      ],
      "min": [
        0.0019527673721313477,
        0.16995276510715485
      ],
      "type": "VEC2"
    },
    {
      "bufferView": 1,
      "byteOffset": 1989824,
      "componentType": 5126,
      "count": 6473,
      "max": [
        0.9980850219726563,
        0.9972140789031982
      ],
      "min": [
        0.0019527673721313477,
        0.16995276510715485
      ],
      "type": "VEC2"
    },
    {
      "bufferView": 0,
      "byteOffset": 1314708,
      "componentType": 5125,
      "count": 23133,
      "type": "SCALAR"
    }
  ],
  "asset": {
    "extras": {
      "author": "Bársh (https://sketchfab.com/borsh_and)",
      "license": "SKETCHFAB Standard (https://sketchfab.com/licenses)",
      "source": "https://sketchfab.com/3d-models/1970s-mafia-hideout-props-a1936b083f884bb09db7c9c74f336436",
      "title": "1970s Mafia Hideout Props"
    },
    "generator": "Sketchfab-17.17.0",
    "version": "2.0"
  },
  "bufferViews": [
    {
      "buffer": 0,
      "byteLength": 1407240,
      "name": "floatBufferViews",
      "target": 34963
    },
    {
      "buffer": 0,
      "byteLength": 2041608,
      "byteOffset": 1407240,
      "byteStride": 8,
      "name": "floatBufferViews",
      "target": 34962
    },
    {
      "buffer": 0,
      "byteLength": 2041608,
      "byteOffset": 3448848,
      "byteStride": 12,
      "name": "floatBufferViews",
      "target": 34962
    },
    {
      "buffer": 0,
      "byteLength": 1354016,
      "byteOffset": 5490456,
      "byteStride": 16,
      "name": "floatBufferViews",
      "target": 34962
    }
  ],
  "buffers": [
    {
      "byteLength": 6844472,
      "uri": "scene.bin"
    }
  ],
  "extensionsUsed": [
    "KHR_materials_specular"
  ],
  "images": [
    {
      "uri": "textures/Bake_Mafia_Asset_2_baseColor.png"
    },
    {
      "uri": "textures/Bake_Mafia_Asset_2_metallicRoughness.png"
    },
    {
      "uri": "textures/Bake_Mafia_Asset_2_normal.png"
    },
    {
      "uri": "textures/Screen_baseColor.png"
    },
    {
      "uri": "textures/Screen_metallicRoughness.png"
    }
  ],
  "materials": [
    {
      "doubleSided": true,
      "extensions": {
        "KHR_materials_specular": {
          "specularColorFactor": [
            1.0,
            1.0,
            1.0
          ],
          "specularFactor": 1.0
        }
      },
      "name": "Bake_Mafia_Asset_2",
      "normalTexture": {
        "index": 2
      },
      "pbrMetallicRoughness": {
        "baseColorTexture": {
          "index": 0
        },
        "metallicRoughnessTexture": {
          "index": 1
        }
      }
    },
    {
      "doubleSided": true,
      "name": "Screen",
      "pbrMetallicRoughness": {
        "baseColorTexture": {
          "index": 3
        },
        "metallicFactor": 0.0,
        "metallicRoughnessTexture": {
          "index": 4
        }
      }
    }
  ],
  "meshes": [
    {
      "name": "vedro_low.001_Bake_Mafia_Asset_2_0",
      "primitives": [
        {
          "attributes": {
            "NORMAL": 1,
            "POSITION": 0,
            "TANGENT": 2,
            "TEXCOORD_0": 3,
            "TEXCOORD_1": 4,
            "TEXCOORD_2": 5
          },
          "indices": 6,
          "material": 0,
          "mode": 4
        }
      ]
    },
    {
      "name": "vedro_low.003_Screen_0",
      "primitives": [
        {
          "attributes": {
            "NORMAL": 8,
            "POSITION": 7,
            "TEXCOORD_0": 9,
            "TEXCOORD_1": 10,
            "TEXCOORD_2": 11
          },
          "indices": 12,
          "material": 1,
          "mode": 4
        }
      ]
    },
    {
      "name": "vedro_low.004_Bake_Mafia_Asset_2_0",
      "primitives": [
        {
          "attributes": {
            "NORMAL": 14,
            "POSITION": 13,
            "TANGENT": 15,
            "TEXCOORD_0": 16,
            "TEXCOORD_1": 17,
            "TEXCOORD_2": 18
          },
          "indices": 19,
          "material": 0,
          "mode": 4
        }
      ]
    },
    {
      "name": "vedro_low.005_Bake_Mafia_Asset_2_0",
      "primitives": [
        {
          "attributes": {
            "NORMAL": 21,
            "POSITION": 20,
            "TANGENT": 22,
            "TEXCOORD_0": 23,
            "TEXCOORD_1": 24,
            "TEXCOORD_2": 25
          },
          "indices": 26,
          "material": 0,
          "mode": 4
        }
      ]
    },
    {
      "name": "vedro_low.006_Bake_Mafia_Asset_2_0",
      "primitives": [
        {
          "attributes": {
            "NORMAL": 28,
            "POSITION": 27,
            "TANGENT": 29,
            "TEXCOORD_0": 30,
            "TEXCOORD_1": 31,
            "TEXCOORD_2": 32
          },
          "indices": 33,
          "material": 0,
          "mode": 4
        }
      ]
    },
    {
      "name": "vedro_low.007_Bake_Mafia_Asset_2_0",
      "primitives": [
        {
          "attributes": {
            "NORMAL": 35,
            "POSITION": 34,
            "TANGENT": 36,
            "TEXCOORD_0": 37,
            "TEXCOORD_1": 38,
            "TEXCOORD_2": 39
          },
          "indices": 40,
          "material": 0,
          "mode": 4
        }
      ]
    },
    {
      "name": "vedro_low.008_Bake_Mafia_Asset_2_0",
      "primitives": [
        {
          "attributes": {
            "NORMAL": 42,
            "POSITION": 41,
            "TANGENT": 43,
            "TEXCOORD_0": 44,
            "TEXCOORD_1": 45,
            "TEXCOORD_2": 46
          },
          "indices": 47,
          "material": 0,
          "mode": 4
        }
      ]
    },
    {
      "name": "vedro_low.009_Bake_Mafia_Asset_2_0",
      "primitives": [
        {
          "attributes": {
            "NORMAL": 49,
            "POSITION": 48,
            "TANGENT": 50,
            "TEXCOORD_0": 51,
            "TEXCOORD_1": 52,
            "TEXCOORD_2": 53
          },
          "indices": 54,
          "material": 0,
          "mode": 4
        }
      ]
    },
    {
      "name": "vedro_low.010_Bake_Mafia_Asset_2_0",
      "primitives": [
        {
          "attributes": {
            "NORMAL": 56,
            "POSITION": 55,
            "TANGENT": 57,
            "TEXCOORD_0": 58,
            "TEXCOORD_1": 59,
            "TEXCOORD_2": 60
          },
          "indices": 61,
          "material": 0,
          "mode": 4
        }
      ]
    },
    {
      "name": "vedro_low.011_Bake_Mafia_Asset_2_0",
      "primitives": [
        {
          "attributes": {
            "NORMAL": 63,
            "POSITION": 62,
            "TANGENT": 64,
            "TEXCOORD_0": 65,
            "TEXCOORD_1": 66,
            "TEXCOORD_2": 67
          },
          "indices": 68,
          "material": 0,
          "mode": 4
        }
      ]
    },
    {
      "name": "vedro_low.012_Bake_Mafia_Asset_2_0",
      "primitives": [
        {
          "attributes": {
            "NORMAL": 70,
            "POSITION": 69,
            "TANGENT": 71,
            "TEXCOORD_0": 72,
            "TEXCOORD_1": 73,
            "TEXCOORD_2": 74
          },
          "indices": 75,
          "material": 0,
          "mode": 4
        }
      ]
    },
    {
      "name": "vedro_low.013_Bake_Mafia_Asset_2_0",
      "primitives": [
        {
          "attributes": {
            "NORMAL": 77,
            "POSITION": 76,
            "TANGENT": 78,
            "TEXCOORD_0": 79,
            "TEXCOORD_1": 80,
            "TEXCOORD_2": 81
          },
          "indices": 82,
          "material": 0,
          "mode": 4
        }
      ]
    },
    {
      "name": "vedro_low.014_Bake_Mafia_Asset_2_0",
      "primitives": [
        {
          "attributes": {
            "NORMAL": 84,
            "POSITION": 83,
            "TANGENT": 85,
            "TEXCOORD_0": 86,
            "TEXCOORD_1": 87,
            "TEXCOORD_2": 88
          },
          "indices": 89,
          "material": 0,
          "mode": 4
        }
      ]
    },
    {
      "name": "vedro_low.015_Bake_Mafia_Asset_2_0",
      "primitives": [
        {
          "attributes": {
            "NORMAL": 91,
            "POSITION": 90,
            "TANGENT": 92,
            "TEXCOORD_0": 93,
            "TEXCOORD_1": 94,
            "TEXCOORD_2": 95
          },
          "indices": 96,
          "material": 0,
          "mode": 4
        }
      ]
    },
    {
      "name": "vedro_low.016_Bake_Mafia_Asset_2_0",
      "primitives": [
        {
          "attributes": {
            "NORMAL": 98,
            "POSITION": 97,
            "TANGENT": 99,
            "TEXCOORD_0": 100,
            "TEXCOORD_1": 101,
            "TEXCOORD_2": 102
          },
          "indices": 103,
          "material": 0,
          "mode": 4
        }
      ]
    },
    {
      "name": "vedro_low.017_Bake_Mafia_Asset_2_0",
      "primitives": [
        {
          "attributes": {
            "NORMAL": 105,
            "POSITION": 104,
            "TANGENT": 106,
            "TEXCOORD_0": 107,
            "TEXCOORD_1": 108,
            "TEXCOORD_2": 109
          },
          "indices": 110,
          "material": 0,
          "mode": 4
        }
      ]
    }
  ],
  "nodes": [
    {
      "children": [
        1
      ],
      "matrix": [
        1.0,
        0.0,
        0.0,
        0.0,
        0.0,
        2.220446049250313e-16,
        -1.0,
        0.0,
        0.0,
        1.0,
        2.220446049250313e-16,
        0.0,
        0.0,
        0.0,
        0.0,
        1.0
      ],
      "name": "Sketchfab_model"
    },
    {
      "children": [
        2
      ],
      "matrix": [
        0.009999999776482582,
        0.0,
        0.0,
        0.0,
        0.0,
        0.0,
        0.009999999776482582,
        0.0,
        0.0,
        -0.009999999776482582,
        0.0,
        0.0,
        0.0,
        0.0,
        0.0,
        1.0
      ],
      "name": "a97eb5ffa6a147399d894311da725b2f.fbx"
    },
    {
      "children": [
        3,
        5,
        7,
        9,
        11,
        13,
        15,
        17,
        19,
        21,
        23,
        25,
        27,
        29,
        31,
        33
      ],
      "name": "RootNode"
    },
    {
      "children": [
        4
      ],
      "matrix": [
        100.0,
        0.0,
        0.0,
        0.0,
        0.0,
        -1.629206793918314e-05,
        -99.99999999999868,
        0.0,
        0.0,
        99.99999999999868,
        -1.629206793918314e-05,
        0.0,
        132.4739990234375,
        88.88856506347656,
        -129.5215301513672,
        1.0
      ],
      "name": "vedro_low.001"
    },
    {
      "mesh": 0,
      "name": "vedro_low.001_Bake_Mafia_Asset_2_0"
    },
    {
      "children": [
        6
      ],
      "matrix": [
        100.0,
        0.0,
        0.0,
        0.0,
        -0.0,
        -1.629206793918314e-05,
        -99.99999999999868,
        0.0,
        0.0,
        99.99999999999868,
        -1.629206793918314e-05,
        0.0,
        -4.667148113250732,
        51.54402160644531,
        -90.53246307373047,
        1.0
      ],
      "name": "vedro_low.003"
    },
    {
      "mesh": 1,
      "name": "vedro_low.003_Screen_0"
    },
    {
      "children": [
        8
      ],
      "matrix": [
        100.0,
        0.0,
        0.0,
        0.0,
        0.0,
        -1.629206793918314e-05,
        -99.99999999999868,
        0.0,
        0.0,
        99.99999999999868,
        -1.629206793918314e-05,
        0.0,
        175.02084350585938,
        0.2969728112220764,
        -76.040283203125,
        1.0
      ],
      "name": "vedro_low.004"
    },
    {
      "mesh": 2,
      "name": "vedro_low.004_Bake_Mafia_Asset_2_0"
    },
    {
      "children": [
        10
      ],
      "matrix": [
        100.0,
        0.0,
        0.0,
        0.0,
        0.0,
        -1.629206793918314e-05,
        -99.99999999999868,
        0.0,
        0.0,
        99.99999999999868,
        -1.629206793918314e-05,
        0.0,
        4.9538702964782715,
        4.423782229423523e-07,
        -91.21336364746094,
        1.0
      ],
      "name": "vedro_low.005"
    },
    {
      "mesh": 3,
      "name": "vedro_low.005_Bake_Mafia_Asset_2_0"
    },
    {
      "children": [
        12
      ],
      "matrix": [
        100.0,
        0.0,
        0.0,
        0.0,
        0.0,
        -1.629206793918314e-05,
        -99.99999999999868,
        0.0,
        0.0,
        99.99999999999868,
        -1.629206793918314e-05,
        0.0,
        102.66337585449219,
        2.3283064365386963e-07,
        -47.69358825683594,
        1.0
      ],
      "name": "vedro_low.006"
    },
    {
      "mesh": 4,
      "name": "vedro_low.006_Bake_Mafia_Asset_2_0"
    },
    {
      "children": [
        14
      ],
      "matrix": [
        100.0,
        0.0,
        0.0,
        0.0,
        0.0,
        -1.629206793918314e-05,
        -99.99999999999868,
        0.0,
        0.0,
        99.99999999999868,
        -1.629206793918314e-05,
        0.0,
        90.18482208251953,
        -0.05607646703720093,
        66.92330932617188,
        1.0
      ],
      "name": "vedro_low.007"
    },
    {
      "mesh": 5,
      "name": "vedro_low.007_Bake_Mafia_Asset_2_0"
    },
    {
      "children": [
        16
      ],
      "matrix": [
        100.0,
        0.0,
        0.0,
        0.0,
        0.0,
        -1.629206793918314e-05,
        -99.99999999999868,
        0.0,
        0.0,
        99.99999999999868,
        -1.629206793918314e-05,
        0.0,
        43.633243560791016,
        0.1652449369430542,
        -22.562271118164063,
        1.0
      ],
      "name": "vedro_low.008"
    },
    {
      "mesh": 6,
      "name": "vedro_low.008_Bake_Mafia_Asset_2_0"
    },
    {
      "children": [
        18
      ],
      "matrix": [
        100.0,
        0.0,
        0.0,
        0.0,
        0.0,
        -1.629206793918314e-05,
        -99.99999999999868,
        0.0,
        0.0,
        99.99999999999868,
        -1.629206793918314e-05,
        0.0,
        167.8088836669922,
        5.388735771179199,
        -82.51864624023438,
        1.0
      ],
      "name": "vedro_low.009"
    },
    {
      "mesh": 7,
      "name": "vedro_low.009_Bake_Mafia_Asset_2_0"
    },
    {
      "children": [
        20
      ],
      "matrix": [
        100.0,
        0.0,
        0.0,
        0.0,
        0.0,
        -1.629206793918314e-05,
        -99.99999999999868,
        0.0,
        0.0,
        99.99999999999868,
        -1.629206793918314e-05,
        0.0,
        112.05912780761719,
        51.62461853027344,
        -42.59447479248047,
        1.0
      ],
      "name": "vedro_low.010"
    },
    {
      "mesh": 8,
      "name": "vedro_low.010_Bake_Mafia_Asset_2_0"
    },
    {
      "children": [
        22
      ],
      "matrix": [
        100.0,
        0.0,
        0.0,
        0.0,
        0.0,
        -1.629206793918314e-05,
        -99.99999999999868,
        0.0,
        0.0,
        99.99999999999868,
        -1.629206793918314e-05,
        0.0,
        59.068321228027344,
        62.16371154785156,
        -69.03568267822266,
        1.0
      ],
      "name": "vedro_low.011"
    },
    {
      "mesh": 9,
      "name": "vedro_low.011_Bake_Mafia_Asset_2_0"
    },
    {
      "children": [
        24
      ],
      "matrix": [
        100.0,
        0.0,
        0.0,
        0.0,
        0.0,
        -1.629206793918314e-05,
        -99.99999999999868,
        0.0,
        0.0,
        99.99999999999868,
        -1.629206793918314e-05,
        0.0,
        43.633243560791016,
        0.1652449369430542,
        -22.562271118164063,
        1.0
      ],
      "name": "vedro_low.012"
    },
    {
      "mesh": 10,
      "name": "vedro_low.012_Bake_Mafia_Asset_2_0"
    },
    {
      "children": [
        26
      ],
      "matrix": [
        100.0,
        0.0,
        0.0,
        0.0,
        0.0,
        -1.629206793918314e-05,
        -99.99999999999868,
        0.0,
        0.0,
        99.99999999999868,
        -1.629206793918314e-05,
        0.0,
        124.15087127685547,
        0.18804112076759338,
        -125.63397979736328,
        1.0
      ],
      "name": "vedro_low.013"
    },
    {
      "mesh": 11,
      "name": "vedro_low.013_Bake_Mafia_Asset_2_0"
    },
    {
      "children": [
        28
      ],
      "matrix": [
        100.0,
        0.0,
        0.0,
        0.0,
        0.0,
        -1.629206793918314e-05,
        -99.99999999999868,
        0.0,
        0.0,
        99.99999999999868,
        -1.629206793918314e-05,
        0.0,
        100.57398223876953,
        89.64065551757813,
        -126.23019409179688,
        1.0
      ],
      "name": "vedro_low.014"
    },
    {
      "mesh": 12,
      "name": "vedro_low.014_Bake_Mafia_Asset_2_0"
    },
    {
      "children": [
        30
      ],
      "matrix": [
        100.0,
        0.0,
        0.0,
        0.0,
        0.0,
        -1.629206793918314e-05,
        -99.99999999999868,
        0.0,
        0.0,
        99.99999999999868,
        -1.629206793918314e-05,
        0.0,
        43.633243560791016,
        0.1652449369430542,
        -22.562271118164063,
        1.0
      ],
      "name": "vedro_low.015"
    },
    {
      "mesh": 13,
      "name": "vedro_low.015_Bake_Mafia_Asset_2_0"
    },
    {
      "children": [
        32
      ],
      "matrix": [
        100.0,
        0.0,
        0.0,
        0.0,
        -0.0,
        -1.629206793918314e-05,
        -99.99999999999868,
        0.0,
        0.0,
        99.99999999999868,
        -1.629206793918314e-05,
        0.0,
        -46.90245819091797,
        51.72024917602539,
        -73.90353393554688,
        1.0
      ],
      "name": "vedro_low.016"
    },
    {
      "mesh": 14,
      "name": "vedro_low.016_Bake_Mafia_Asset_2_0"
    },
    {
      "children": [
        34
      ],
      "matrix": [
        100.0,
        0.0,
        0.0,
        0.0,
        -0.0,
        -1.629206793918314e-05,
        -99.99999999999868,
        0.0,
        0.0,
        99.99999999999868,
        -1.629206793918314e-05,
        0.0,
        -25.500551223754883,
        104.05152130126953,
        -87.60684967041016,
        1.0
      ],
      "name": "vedro_low.017"
    },
    {
      "mesh": 15,
      "name": "vedro_low.017_Bake_Mafia_Asset_2_0"
    }
  ],
  "samplers": [
    {
      "magFilter": 9729,
      "minFilter": 9987,
      "wrapS": 10497,
      "wrapT": 10497
    }
  ],
  "scene": 0,
  "scenes": [
    {
      "name": "Sketchfab_Scene",
      "nodes": [
        0
      ]
    }
  ],
  "textures": [
    {
      "sampler": 0,
      "source": 0
    },
    {
      "sampler": 0,
      "source": 1
    },
    {
      "sampler": 0,
      "source": 2
    },
    {
      "sampler": 0,
      "source": 3
    },
    {
      "sampler": 0,
      "source": 4
    }
  ]
}
